<svg version="1.1" id="Layer_1" xmlns="http://www.w3.org/2000/svg" xmlns:xlink="http://www.w3.org/1999/xlink" x="0px" y="0px"
	 width="100%" viewBox="0 0 248 251" enable-background="new 0 0 248 251" xml:space="preserve">
<path fill="#202225" opacity="1.000000" stroke="none" 
	d="
M1.000003,224.000000 
	C1.000000,221.629440 1.000000,219.258896 1.296353,216.150757 
	C1.719298,214.433136 1.956392,213.453110 1.956682,212.473038 
	C1.973954,154.041901 1.978447,95.610741 1.930735,37.179638 
	C1.929597,35.786175 1.323781,34.393200 1.000000,33.000000 
	C1.000000,31.285643 1.000000,29.571283 1.366374,27.358753 
	C5.002800,19.023726 9.358111,11.962314 16.574017,7.141283 
	C19.922401,4.904187 23.517012,3.035628 27.000000,1.000000 
	C29.370558,1.000000 31.741114,1.000000 34.856987,1.288769 
	C36.910789,1.719265 38.219223,1.984481 39.527760,1.984954 
	C96.454506,2.005525 153.381256,2.010646 210.307983,1.960601 
	C211.872269,1.959226 213.436005,1.334206 215.000000,0.999999 
	C217.370560,1.000000 219.741104,1.000000 222.689560,1.333592 
	C233.104187,5.213539 240.989517,11.082117 245.798035,20.608389 
	C246.871811,22.735664 247.933014,24.869293 249.000000,26.999996 
	C249.000000,92.687561 249.000000,158.375122 248.653595,224.630615 
	C247.888077,225.699280 247.296280,226.133804 247.075150,226.710464 
	C241.513275,241.214325 228.234283,250.520233 212.412476,250.538544 
	C154.298798,250.605774 96.184540,250.688690 38.071609,250.469742 
	C25.010132,250.420532 14.318932,244.760300 6.907808,233.685974 
	C4.806348,230.545776 2.962176,227.233398 1.000003,224.000000 
M244.584702,216.373993 
	C245.055984,216.424683 245.527252,216.475372 245.998535,216.526077 
	C246.004135,215.528259 246.014633,214.530426 246.014648,213.532608 
	C246.015823,154.317627 246.017197,95.102654 246.002655,35.887680 
	C246.002502,35.241653 245.793579,34.595676 245.647064,33.746574 
	C244.889572,34.341743 244.499817,34.647987 243.638489,34.374355 
	C240.554535,17.475359 228.963730,6.760242 213.286667,6.742729 
	C154.636292,6.677210 95.985733,6.672215 37.335400,6.753371 
	C20.546751,6.776602 7.000506,20.126900 6.967558,36.872330 
	C6.851501,95.855774 6.854111,154.839706 6.964860,213.823181 
	C6.995884,230.346283 20.851236,244.072342 37.347641,244.094437 
	C95.997986,244.173004 154.648529,244.159607 213.298920,244.097092 
	C223.903748,244.085800 232.442871,239.398331 238.129486,230.624115 
	C240.936157,226.293503 242.153290,220.932709 244.584702,216.373993 
z"/>
<path fill="#F9F9F9" opacity="1.000000" stroke="none" 
	d="
M1.000003,224.468658 
	C2.962176,227.233398 4.806348,230.545776 6.907808,233.685974 
	C14.318932,244.760300 25.010132,250.420532 38.071609,250.469742 
	C96.184540,250.688690 154.298798,250.605774 212.412476,250.538544 
	C228.234283,250.520233 241.513275,241.214325 247.075150,226.710464 
	C247.296280,226.133804 247.888077,225.699280 248.653595,225.099274 
	C249.000000,233.987000 249.000000,242.973984 249.000000,251.955048 
	C166.333313,251.949097 83.666649,251.949097 1.000000,251.949097 
	C1.000000,242.911224 1.000000,233.924271 1.000003,224.468658 
z"/>
<path fill="#F8F8F8" opacity="1.000000" stroke="none" 
	d="
M26.531334,1.000000 
	C23.517012,3.035628 19.922401,4.904187 16.574017,7.141283 
	C9.358111,11.962314 5.002800,19.023726 1.366374,26.930290 
	C1.000000,18.406929 1.000000,9.813859 1.000000,1.000000 
	C9.352930,1.000000 17.707798,1.000000 26.531334,1.000000 
z"/>
<path fill="#F8F8F8" opacity="1.000000" stroke="none" 
	d="
M249.000000,26.531330 
	C247.933014,24.869293 246.871811,22.735664 245.798035,20.608389 
	C240.989517,11.082117 233.104187,5.213539 223.133728,1.333592 
	C231.593063,1.000000 240.186142,1.000000 249.000000,1.000000 
	C249.000000,9.352929 249.000000,17.707798 249.000000,26.531330 
z"/>
<path fill="#3F3D41" opacity="1.000000" stroke="none" 
	d="
M1.000000,33.468658 
	C1.323781,34.393200 1.929597,35.786175 1.930735,37.179638 
	C1.978447,95.610741 1.973954,154.041901 1.956682,212.473038 
	C1.956392,213.453110 1.719298,214.433136 1.296353,215.706589 
	C1.000000,155.312439 1.000000,94.624878 1.000000,33.468658 
z"/>
<path fill="#201E22" opacity="1.000000" stroke="none" 
	d="
M214.531342,0.999999 
	C213.436005,1.334206 211.872269,1.959226 210.307983,1.960601 
	C153.381256,2.010646 96.454506,2.005525 39.527760,1.984954 
	C38.219223,1.984481 36.910789,1.719265 35.301155,1.288769 
	C94.687561,1.000000 154.375122,1.000000 214.531342,0.999999 
z"/>
<path fill="#19AA9F" opacity="1.000000" stroke="none" 
	d="
M244.089661,216.038055 
	C242.153290,220.932709 240.936157,226.293503 238.129486,230.624115 
	C232.442871,239.398331 223.903748,244.085800 213.298920,244.097092 
	C154.648529,244.159607 95.997986,244.173004 37.347641,244.094437 
	C20.851236,244.072342 6.995884,230.346283 6.964860,213.823181 
	C6.854111,154.839706 6.851501,95.855774 6.967558,36.872330 
	C7.000506,20.126900 20.546751,6.776602 37.335400,6.753371 
	C95.985733,6.672215 154.636292,6.677210 213.286667,6.742729 
	C228.963730,6.760242 240.554535,17.475359 243.818542,35.133881 
	C243.995590,51.363331 243.982040,66.833267 243.991638,82.303185 
	C244.019302,126.881477 244.056305,171.459763 244.089661,216.038055 
M201.183563,148.586929 
	C201.183563,148.586929 200.995865,148.259415 201.635834,147.932648 
	C202.030975,146.601730 202.426117,145.270813 203.267960,143.577301 
	C203.283325,143.033768 203.298676,142.490234 203.649887,141.249771 
	C203.720245,140.483963 203.790604,139.718170 204.325821,138.494507 
	C204.411591,137.649750 204.497360,136.804977 204.869827,135.166901 
	C205.220200,127.755508 202.347916,123.785294 195.283096,121.798325 
	C193.732925,121.362350 192.239700,120.723877 191.387070,119.598289 
	C191.538483,119.303970 191.821304,119.010201 191.822525,118.715271 
	C191.893570,101.567696 191.947739,84.420029 191.935425,67.272415 
	C191.935226,66.989952 191.097504,66.708099 190.304123,66.013298 
	C189.950027,65.614304 189.595932,65.215302 189.139023,64.189026 
	C188.861908,63.628296 188.584808,63.067562 187.948456,61.935192 
	C185.396774,56.638550 181.400757,54.264305 175.342361,54.824959 
	C170.441376,55.278492 165.467209,54.938850 160.525528,54.956234 
	C158.347015,54.963894 156.168533,54.984421 154.144882,54.207642 
	C154.069778,53.140594 153.994690,52.073544 154.046555,50.282204 
	C152.204910,47.692516 150.363266,45.102833 147.979919,41.931377 
	C140.017838,41.781963 132.055939,41.610382 124.093163,41.537407 
	C123.608070,41.532963 123.115814,42.310459 121.981712,42.957550 
	C119.572212,46.920185 117.162704,50.882820 115.385406,53.805740 
	C112.809280,52.975052 109.823425,51.429527 106.721466,51.143608 
	C101.604065,50.671913 96.411476,50.987534 91.250893,51.020782 
	C86.219368,51.053204 82.685165,53.268456 80.372749,58.258533 
	C79.906662,58.342529 79.440567,58.426525 78.252853,58.045723 
	C71.323280,57.687027 64.396637,57.122131 57.463375,57.023972 
	C49.530586,56.911667 45.759449,60.622570 45.673344,68.520927 
	C45.539108,80.833870 45.134121,93.175461 45.774727,105.456352 
	C46.414005,117.711754 48.181011,129.909302 49.492634,142.128021 
	C49.846001,145.419907 50.341259,148.696548 50.508400,152.477646 
	C50.699184,152.974030 50.889969,153.470413 51.004986,154.820511 
	C51.259628,156.207108 51.514271,157.593704 51.515972,159.484543 
	C51.719440,159.973190 51.922905,160.461823 52.065250,161.761322 
	C55.373909,172.969421 57.933571,184.482849 62.323093,195.250320 
	C64.364014,200.256668 69.958618,203.814316 74.486351,208.572418 
	C76.928894,208.920090 79.370399,209.560883 81.814148,209.569641 
	C103.760376,209.648117 125.707024,209.631714 147.653427,209.585068 
	C149.427917,209.581299 151.201477,209.145935 153.631668,209.006241 
	C154.469330,208.807098 155.306992,208.607956 156.957642,208.465500 
	C168.700348,206.276428 177.057251,199.706390 182.674194,189.202545 
	C187.085114,180.953964 186.437180,172.187149 186.868561,163.049179 
	C188.556824,162.272278 190.245102,161.495377 192.222275,160.827774 
	C192.434021,160.847366 192.637054,160.813797 193.428284,161.117996 
	C197.712219,160.706192 199.868759,158.108444 200.974579,153.571304 
	C201.059326,152.749649 201.144073,151.927994 201.576462,150.704468 
	C201.424301,150.068237 201.272141,149.432022 201.183563,148.586929 
z"/>
<path fill="#1A0C11" opacity="1.000000" stroke="none" 
	d="
M244.337189,216.206024 
	C244.056305,171.459763 244.019302,126.881477 243.991638,82.303185 
	C243.982040,66.833267 243.995590,51.363331 244.054321,35.423820 
	C244.499817,34.647987 244.889572,34.341743 245.647064,33.746574 
	C245.793579,34.595676 246.002502,35.241653 246.002655,35.887680 
	C246.017197,95.102654 246.015823,154.317627 246.014648,213.532608 
	C246.014633,214.530426 246.004135,215.528259 245.998535,216.526062 
	C245.527252,216.475372 245.055984,216.424683 244.337189,216.206024 
z"/>
<path fill="#1B181D" opacity="1.000000" stroke="none" 
	d="
M51.768913,158.980301 
	C51.514271,157.593704 51.259628,156.207108 51.234680,154.259415 
	C51.233379,153.125610 51.002380,152.552902 50.771381,151.980194 
	C50.341259,148.696548 49.846001,145.419907 49.492634,142.128021 
	C48.181011,129.909302 46.414005,117.711754 45.774727,105.456352 
	C45.134121,93.175461 45.539108,80.833870 45.673344,68.520927 
	C45.759449,60.622570 49.530586,56.911667 57.463375,57.023972 
	C64.396637,57.122131 71.323280,57.687027 78.686401,58.526100 
	C79.795700,58.983864 80.471458,58.961258 81.554016,58.956184 
	C83.045967,59.009655 84.131119,59.045593 85.176979,59.543468 
	C84.786346,64.007004 84.435005,68.008598 83.798973,71.833054 
	C82.036247,69.951187 84.654655,65.669312 79.693832,65.745010 
	C77.127609,64.252800 74.914032,62.223976 72.491119,61.931942 
	C67.761696,61.361908 62.873264,61.384418 58.133545,61.909554 
	C55.455887,62.206226 52.943085,63.990807 49.936111,65.151718 
	C49.009773,66.119629 48.066948,67.038567 48.061775,67.962761 
	C47.970612,84.251953 47.952114,100.542145 48.090538,116.830658 
	C48.099327,117.864563 49.520535,118.886475 50.551674,120.070786 
	C52.228748,121.360275 53.638809,122.492935 55.034996,124.025558 
	C55.021084,124.959038 55.021053,125.492561 55.002083,126.336227 
	C54.982346,127.060524 54.981548,127.474670 54.612129,128.139465 
	C54.072052,128.849472 53.742046,129.312271 53.751919,129.767700 
	C54.209316,150.872253 56.743698,171.673721 65.413078,191.114655 
	C67.660690,196.154846 72.496010,200.041107 76.118057,204.894897 
	C76.079208,206.206421 76.065002,207.080460 75.699394,207.965179 
	C74.879433,207.993469 74.410866,208.011078 73.942307,208.028687 
	C69.958618,203.814316 64.364014,200.256668 62.323093,195.250320 
	C57.933571,184.482849 55.373909,172.969421 52.281761,161.219055 
	C52.255154,160.111298 52.012032,159.545807 51.768913,158.980301 
z"/>
<path fill="#130E12" opacity="1.000000" stroke="none" 
	d="
M85.216263,59.081535 
	C84.131119,59.045593 83.045967,59.009655 81.534409,58.769806 
	C81.107994,58.565895 81.081070,58.191280 81.081070,58.191280 
	C82.685165,53.268456 86.219368,51.053204 91.250893,51.020782 
	C96.411476,50.987534 101.604065,50.671913 106.721466,51.143608 
	C109.823425,51.429527 112.809280,52.975052 115.385406,53.805740 
	C117.162704,50.882820 119.572212,46.920185 122.799179,42.918926 
	C131.918304,42.757915 140.219971,42.635532 148.521622,42.513145 
	C150.363266,45.102833 152.204910,47.692516 153.552643,50.645432 
	C152.199326,51.059097 151.339920,51.109531 150.265152,50.905376 
	C148.455048,46.941204 145.627899,45.662041 141.670303,45.974567 
	C138.368134,46.235336 135.029022,46.027996 131.706268,46.028400 
	C122.651253,46.029499 121.038826,47.666122 121.000595,56.767437 
	C120.925964,74.536896 120.828636,92.306267 120.552948,110.163986 
	C120.147255,110.436203 119.995255,110.664078 119.592529,110.958382 
	C118.850746,110.987175 118.425613,110.993523 118.000244,110.583885 
	C117.999519,108.778557 117.999031,107.389214 117.998718,105.531227 
	C117.997108,91.375252 117.995323,77.687935 117.994995,63.625885 
	C117.329445,62.167122 116.662437,61.083088 115.749168,59.998985 
	C115.502899,59.998917 115.010361,59.998028 114.735031,59.989044 
	C114.092812,59.978275 113.725922,59.976486 113.144714,59.677696 
	C110.854759,58.118958 108.883842,56.052166 106.681358,55.765690 
	C102.306686,55.196682 97.750870,55.195583 93.374146,55.763371 
	C90.558754,56.128613 87.929146,57.926033 85.216263,59.081535 
z"/>
<path fill="#161116" opacity="1.000000" stroke="none" 
	d="
M203.860962,138.952362 
	C203.790604,139.718170 203.720245,140.483963 203.267365,141.679459 
	C202.863632,142.719391 202.842438,143.329651 202.821259,143.939896 
	C202.426117,145.270813 202.030975,146.601730 201.038330,147.628204 
	C199.847672,146.181381 199.254532,145.039032 198.603897,143.484894 
	C199.174362,140.393066 199.802322,137.713028 200.708069,134.971008 
	C200.879761,133.923660 200.773697,132.938263 200.439758,131.662018 
	C197.894424,125.893242 192.591980,126.111931 188.005035,124.597519 
	C189.091751,121.343918 188.342834,119.386993 185.127716,118.201813 
	C185.084305,100.512787 185.111542,83.257088 185.383636,66.122742 
	C186.514130,66.173744 187.399796,66.103394 188.264374,66.462631 
	C188.697006,68.968735 189.150726,71.045273 189.580826,73.579689 
	C189.573395,86.318291 189.589584,98.599014 189.279602,111.059570 
	C189.182693,112.833305 189.411926,114.427200 189.694244,116.390884 
	C190.071640,117.900009 190.395950,119.039337 190.720245,120.178665 
	C192.239700,120.723877 193.732925,121.362350 195.283096,121.798325 
	C202.347916,123.785294 205.220200,127.755508 204.450439,135.643250 
	C203.974365,137.063843 203.917664,138.008102 203.860962,138.952362 
z"/>
<path fill="#1B181D" opacity="1.000000" stroke="none" 
	d="
M186.170853,163.393921 
	C186.437180,172.187149 187.085114,180.953964 182.674194,189.202545 
	C177.057251,199.706390 168.700348,206.276428 156.504089,207.935822 
	C155.984482,206.410721 155.918427,205.415283 156.136871,204.221008 
	C170.991455,200.124313 180.450027,189.703995 181.720444,175.711044 
	C182.152069,170.956940 181.857147,166.136871 181.917114,160.868561 
	C182.023422,159.436172 182.106812,158.482178 182.505066,157.549484 
	C183.212860,157.707474 183.605774,157.844147 184.041473,158.300873 
	C184.720810,159.082764 185.357346,159.544571 185.996490,160.257874 
	C186.000000,160.677063 186.000916,160.844757 186.009171,161.409729 
	C186.067963,162.335999 186.119415,162.864960 186.170853,163.393921 
z"/>
<path fill="#0A080C" opacity="1.000000" stroke="none" 
	d="
M150.480499,51.159966 
	C151.339920,51.109531 152.199326,51.059097 153.489166,51.007580 
	C153.994690,52.073544 154.069778,53.140594 153.784302,54.894382 
	C153.557907,58.580463 150.805099,62.290066 155.518982,64.618744 
	C155.387329,81.055870 155.270752,97.033257 154.776489,112.963364 
	C153.182190,112.580711 151.965561,112.245346 150.736420,111.447197 
	C150.642746,91.042938 150.561615,71.101448 150.480499,51.159966 
z"/>
<path fill="#222327" opacity="1.000000" stroke="none" 
	d="
M74.214325,208.300552 
	C74.410866,208.011078 74.879433,207.993469 76.108383,207.919098 
	C78.157265,207.590729 79.448593,207.069870 80.733818,207.084518 
	C104.076050,207.350784 127.417664,207.673355 150.758606,208.035568 
	C151.501923,208.047104 152.236710,208.606918 152.975479,208.911133 
	C151.201477,209.145935 149.427917,209.581299 147.653427,209.585068 
	C125.707024,209.631714 103.760376,209.648117 81.814148,209.569641 
	C79.370399,209.560883 76.928894,208.920090 74.214325,208.300552 
z"/>
<path fill="#090508" opacity="1.000000" stroke="none" 
	d="
M153.303574,208.958679 
	C152.236710,208.606918 151.501923,208.047104 150.758606,208.035568 
	C127.417664,207.673355 104.076050,207.350784 80.733818,207.084518 
	C79.448593,207.069870 78.157265,207.590729 76.459785,207.908417 
	C76.065002,207.080460 76.079208,206.206421 76.576828,204.936081 
	C103.324287,204.499802 129.588333,204.459824 155.852386,204.419846 
	C155.918427,205.415283 155.984482,206.410721 156.097595,207.907471 
	C155.306992,208.607956 154.469330,208.807098 153.303574,208.958679 
z"/>
<path fill="#161116" opacity="1.000000" stroke="none" 
	d="
M155.534042,64.159004 
	C150.805099,62.290066 153.557907,58.580463 153.706879,55.290112 
	C156.168533,54.984421 158.347015,54.963894 160.525528,54.956234 
	C165.467209,54.938850 170.441376,55.278492 175.342361,54.824959 
	C181.400757,54.264305 185.396774,56.638550 187.899231,62.552879 
	C186.603073,63.445637 185.356171,63.720707 183.968719,63.665279 
	C181.398499,62.033783 179.086365,60.025906 176.511536,59.597763 
	C172.666458,58.958401 168.618454,59.666916 164.689865,59.367653 
	C160.491882,59.047867 157.414017,60.317726 155.534042,64.159004 
z"/>
<path fill="#19B7AB" opacity="1.000000" stroke="none" 
	d="
M191.053650,119.888474 
	C190.395950,119.039337 190.071640,117.900009 189.956070,116.179184 
	C189.978455,114.025047 189.792099,112.452385 189.605743,110.879730 
	C189.589584,98.599014 189.573395,86.318291 189.841721,73.378540 
	C190.301025,70.621658 190.475830,68.523811 190.650635,66.425957 
	C191.097504,66.708099 191.935226,66.989952 191.935425,67.272415 
	C191.947739,84.420029 191.893570,101.567696 191.822525,118.715271 
	C191.821304,119.010201 191.538483,119.303970 191.053650,119.888474 
z"/>
<path fill="#1A3738" opacity="1.000000" stroke="none" 
	d="
M148.250763,42.222260 
	C140.219971,42.635532 131.918304,42.757915 123.121773,42.802216 
	C123.115814,42.310459 123.608070,41.532963 124.093163,41.537407 
	C132.055939,41.610382 140.017838,41.781963 148.250763,42.222260 
z"/>
<path fill="#161116" opacity="1.000000" stroke="none" 
	d="
M200.646149,154.093552 
	C199.868759,158.108444 197.712219,160.706192 193.192139,160.422485 
	C192.943085,159.073196 192.930161,158.419449 192.969742,157.464294 
	C194.156647,156.034744 195.291061,154.906555 196.948334,153.841156 
	C198.529526,153.967133 199.587830,154.030350 200.646149,154.093552 
z"/>
<path fill="#1B4E4D" opacity="1.000000" stroke="none" 
	d="
M190.477386,66.219627 
	C190.475830,68.523811 190.301025,70.621658 189.865326,72.920654 
	C189.150726,71.045273 188.697006,68.968735 188.454132,66.289703 
	C188.857269,65.396912 189.049545,65.106613 189.241821,64.816299 
	C189.595932,65.215302 189.950027,65.614304 190.477386,66.219627 
z"/>
<path fill="#222327" opacity="1.000000" stroke="none" 
	d="
M186.519714,163.221558 
	C186.119415,162.864960 186.067963,162.335999 186.305588,161.384644 
	C187.080460,160.661194 187.566238,160.360107 188.538971,160.068115 
	C189.995056,160.290955 190.964203,160.504715 191.933365,160.718460 
	C190.245102,161.495377 188.556824,162.272278 186.519714,163.221558 
z"/>
<path fill="#0F0D11" opacity="1.000000" stroke="none" 
	d="
M192.077820,160.773117 
	C190.964203,160.504715 189.995056,160.290955 188.195801,160.048340 
	C186.908432,160.015106 186.451157,160.010742 185.993896,160.006378 
	C185.357346,159.544571 184.720810,159.082764 184.371368,158.228912 
	C185.104736,157.888367 185.551010,157.939850 186.193893,158.244873 
	C186.992722,158.638672 187.594925,158.778915 188.539520,158.832886 
	C190.227020,158.419647 191.572128,158.092667 192.917236,157.765686 
	C192.930161,158.419449 192.943085,159.073196 192.893692,160.227005 
	C192.637054,160.813797 192.434021,160.847366 192.077820,160.773117 
z"/>
<path fill="#1B181D" opacity="1.000000" stroke="none" 
	d="
M200.810364,153.832428 
	C199.587830,154.030350 198.529526,153.967133 196.974823,153.377533 
	C197.036728,150.894547 197.595016,148.937927 198.346527,147.624847 
	C199.436111,149.214355 200.332474,150.160339 201.228821,151.106339 
	C201.144073,151.927994 201.059326,152.749649 200.810364,153.832428 
z"/>
<path fill="#1B181D" opacity="1.000000" stroke="none" 
	d="
M189.190430,64.502670 
	C189.049545,65.106613 188.857269,65.396912 188.475220,65.860130 
	C187.399796,66.103394 186.514130,66.173744 185.199127,65.888474 
	C184.549606,65.020500 184.329422,64.508141 184.109253,63.995781 
	C185.356171,63.720707 186.603073,63.445637 188.078857,62.838699 
	C188.584808,63.067562 188.861908,63.628296 189.190430,64.502670 
z"/>
<path fill="#1B181D" opacity="1.000000" stroke="none" 
	d="
M198.661392,143.896667 
	C199.254532,145.039032 199.847672,146.181381 200.718338,147.791580 
	C200.995865,148.259415 201.183563,148.586929 200.345444,148.297150 
	C199.045700,147.635803 198.584091,147.264221 198.027039,146.797867 
	C198.174866,145.767624 198.418121,144.832138 198.661392,143.896667 
z"/>
<path fill="#222327" opacity="1.000000" stroke="none" 
	d="
M204.093384,138.723434 
	C203.917664,138.008102 203.974365,137.063843 204.307098,136.039902 
	C204.497360,136.804977 204.411591,137.649750 204.093384,138.723434 
z"/>
<path fill="#161116" opacity="1.000000" stroke="none" 
	d="
M198.122482,146.892639 
	C198.584091,147.264221 199.045700,147.635803 200.313660,148.401581 
	C201.272141,149.432022 201.424301,150.068237 201.402649,150.905396 
	C200.332474,150.160339 199.436111,149.214355 198.361176,147.599777 
	C198.182617,146.931183 198.122482,146.892639 198.122482,146.892639 
z"/>
<path fill="#222327" opacity="1.000000" stroke="none" 
	d="
M51.642441,159.232422 
	C52.012032,159.545807 52.255154,160.111298 52.312325,160.813629 
	C51.922905,160.461823 51.719440,159.973190 51.642441,159.232422 
z"/>
<path fill="#222327" opacity="1.000000" stroke="none" 
	d="
M50.639893,152.228912 
	C51.002380,152.552902 51.233379,153.125610 51.272568,153.832550 
	C50.889969,153.470413 50.699184,152.974030 50.639893,152.228912 
z"/>
<path fill="#222327" opacity="1.000000" stroke="none" 
	d="
M203.044617,143.758606 
	C202.842438,143.329651 202.863632,142.719391 203.099426,142.027924 
	C203.298676,142.490234 203.283325,143.033768 203.044617,143.758606 
z"/>
<path fill="#222327" opacity="1.000000" stroke="none" 
	d="
M80.726913,58.224907 
	C81.081070,58.191280 81.107994,58.565895 81.127602,58.752274 
	C80.471458,58.961258 79.795700,58.983864 79.047211,58.758499 
	C79.440567,58.426525 79.906662,58.342529 80.726913,58.224907 
z"/>
<path fill="#FBFBFB" opacity="1.000000" stroke="none" 
	d="
M156.136871,204.221008 
	C129.588333,204.459824 103.324287,204.499802 76.601471,204.498596 
	C72.496010,200.041107 67.660690,196.154846 65.413078,191.114655 
	C56.743698,171.673721 54.209316,150.872253 53.751919,129.767700 
	C53.742046,129.312271 54.072052,128.849472 55.065239,128.274475 
	C62.602840,128.030487 69.318710,127.902122 76.465439,127.761230 
	C77.962967,127.767174 79.029640,127.785652 80.000107,128.214813 
	C80.565887,136.082886 83.118401,139.496017 89.377693,141.057159 
	C96.718361,141.044983 103.718468,140.813828 111.062805,140.538742 
	C112.571365,141.125793 113.798126,141.664856 114.888145,142.405243 
	C117.973030,144.500595 121.001907,146.678391 124.239258,149.037781 
	C124.964760,149.254715 125.503845,149.257599 126.376511,149.470734 
	C127.487061,149.741440 128.264023,149.801865 129.243027,150.055847 
	C129.977676,150.263535 130.510284,150.277695 131.398102,150.520035 
	C135.523773,151.426178 139.294189,152.104126 143.255417,152.987762 
	C143.978500,153.197525 144.510788,153.201630 145.394653,153.423325 
	C146.834244,153.749588 147.922256,153.858231 149.207047,154.172363 
	C149.947449,154.415527 150.491074,154.453201 151.339386,154.670914 
	C152.109497,154.854935 152.574905,154.858932 153.250000,155.039230 
	C153.987198,155.213440 154.514709,155.211334 155.370514,155.432709 
	C156.477097,155.733536 157.255417,155.810883 158.234039,156.083511 
	C158.970245,156.278229 159.506134,156.277679 160.376221,156.484116 
	C161.483307,156.762650 162.256195,156.834183 163.216568,157.121124 
	C163.949417,157.351349 164.494781,157.366150 165.377319,157.575668 
	C166.482742,157.825851 167.250977,157.881332 168.222260,158.132080 
	C168.963425,158.347763 169.501556,158.368164 170.383087,158.603027 
	C172.834320,159.155411 174.942123,159.493347 177.316544,160.046478 
	C178.708466,160.414795 179.833786,160.567886 181.146149,160.947296 
	C181.520203,161.231400 181.707214,161.289185 181.894211,161.346954 
	C181.857147,166.136871 182.152069,170.956940 181.720444,175.711044 
	C180.450027,189.703995 170.991455,200.124313 156.136871,204.221008 
z"/>
<path fill="#FCFCFC" opacity="1.000000" stroke="none" 
	d="
M85.176979,59.543468 
	C87.929146,57.926033 90.558754,56.128613 93.374146,55.763371 
	C97.750870,55.195583 102.306686,55.196682 106.681358,55.765690 
	C108.883842,56.052166 110.854759,58.118958 113.226486,59.940155 
	C113.769897,60.970867 114.017227,61.442112 114.193489,62.382462 
	C114.176781,85.259888 114.231148,107.668221 114.088959,130.262955 
	C113.838249,130.974091 113.784081,131.498825 113.482903,132.278839 
	C112.410759,133.655701 111.585625,134.777283 110.475388,135.950226 
	C109.841057,136.165771 109.491814,136.329956 108.678085,136.377563 
	C101.130562,135.867096 94.047516,135.473206 86.798775,134.829559 
	C86.262489,134.109634 85.891899,133.639496 85.566193,132.913361 
	C85.308792,132.051254 85.006523,131.445129 84.694550,130.439606 
	C84.484184,125.007576 84.283516,119.974968 84.236847,114.503403 
	C84.288452,100.046371 84.186050,86.028282 84.083649,72.010201 
	C84.435005,68.008598 84.786346,64.007004 85.176979,59.543468 
z"/>
<path fill="#F9F9F9" opacity="1.000000" stroke="none" 
	d="
M50.356022,65.105179 
	C52.943085,63.990807 55.455887,62.206226 58.133545,61.909554 
	C62.873264,61.384418 67.761696,61.361908 72.491119,61.931942 
	C74.914032,62.223976 77.127609,64.252800 79.646255,66.212051 
	C79.902679,84.285110 79.948662,101.642799 79.763214,119.224052 
	C78.013824,120.828888 76.495850,122.210167 74.584396,123.485977 
	C67.810226,123.462212 61.429550,123.543900 55.048870,123.625595 
	C53.638809,122.492935 52.228748,121.360275 50.525681,119.607590 
	C50.273792,101.026764 50.314907,83.065971 50.356022,65.105179 
z"/>
<path fill="#060409" opacity="1.000000" stroke="none" 
	d="
M79.994637,119.000488 
	C79.948662,101.642799 79.902679,84.285110 79.904282,66.460373 
	C84.654655,65.669312 82.036247,69.951187 83.798965,71.833054 
	C84.186050,86.028282 84.288452,100.046371 83.967178,114.671890 
	C82.360558,116.519714 81.177597,117.760101 79.994637,119.000488 
z"/>
<path fill="#09080C" opacity="1.000000" stroke="none" 
	d="
M49.936111,65.151718 
	C50.314907,83.065971 50.273792,101.026764 50.258671,119.450760 
	C49.520535,118.886475 48.099327,117.864563 48.090538,116.830658 
	C47.952114,100.542145 47.970612,84.251953 48.061775,67.962761 
	C48.066948,67.038567 49.009773,66.119629 49.936111,65.151718 
z"/>
<path fill="#222327" opacity="1.000000" stroke="none" 
	d="
M55.034996,124.025558 
	C61.429550,123.543900 67.810226,123.462212 74.592720,123.881271 
	C75.002869,124.908356 75.011208,125.434669 74.550110,125.975128 
	C67.727463,126.001541 61.374241,126.013809 55.021023,126.026077 
	C55.021053,125.492561 55.021084,124.959038 55.034996,124.025558 
z"/>
<path fill="#373539" opacity="1.000000" stroke="none" 
	d="
M55.002083,126.336227 
	C61.374241,126.013809 67.727463,126.001541 74.787132,126.122559 
	C75.673920,126.761826 75.854248,127.267799 76.034584,127.773773 
	C69.318710,127.902122 62.602840,128.030487 55.433861,128.023834 
	C54.981548,127.474670 54.982346,127.060524 55.002083,126.336227 
z"/>
<path fill="#F7F7F7" opacity="1.000000" stroke="none" 
	d="
M150.265137,50.905376 
	C150.561615,71.101448 150.642746,91.042938 150.329697,111.467682 
	C140.218018,111.106285 130.764664,106.149277 120.740707,110.075668 
	C120.828636,92.306267 120.925964,74.536896 121.000595,56.767437 
	C121.038826,47.666122 122.651253,46.029499 131.706268,46.028400 
	C135.029022,46.027996 138.368134,46.235336 141.670303,45.974567 
	C145.627899,45.662041 148.455048,46.941204 150.265137,50.905376 
z"/>
<path fill="#1B181D" opacity="1.000000" stroke="none" 
	d="
M120.552948,110.163986 
	C130.764664,106.149277 140.218018,111.106285 150.342224,111.930466 
	C151.965561,112.245346 153.182190,112.580711 155.122360,113.071342 
	C162.426804,114.671486 168.987488,116.219284 175.597366,117.516434 
	C178.749512,118.135017 181.995117,118.277184 185.198395,118.635147 
	C188.342834,119.386993 189.091751,121.343918 187.606155,124.665771 
	C168.492462,121.134254 149.817596,116.970230 131.030579,113.395691 
	C128.331085,112.882065 125.090881,115.210258 121.945480,115.894150 
	C121.163086,114.021980 120.536133,112.478958 119.909180,110.935936 
	C119.995255,110.664078 120.147255,110.436203 120.552948,110.163986 
z"/>
<path fill="#0F0D11" opacity="1.000000" stroke="none" 
	d="
M114.285507,130.076553 
	C114.231148,107.668221 114.176781,85.259888 114.403854,62.211700 
	C114.793640,61.047237 114.902000,60.522633 115.010361,59.998028 
	C115.010361,59.998028 115.502899,59.998917 115.890579,60.318680 
	C116.521973,61.759270 116.765694,62.880093 117.006966,64.469505 
	C117.003685,78.625336 117.002853,92.312576 117.001076,106.415871 
	C117.000687,108.221184 117.001228,109.610435 117.001526,111.375023 
	C117.004173,112.500999 117.007050,113.251648 117.007370,114.334846 
	C117.006622,115.110794 117.008438,115.554192 117.008331,116.331635 
	C117.007896,117.111061 117.009384,117.556442 117.007767,118.456909 
	C118.035103,122.202179 114.808914,126.324020 119.037598,129.360565 
	C118.878296,130.538254 118.657318,131.356766 118.008644,132.133347 
	C116.722198,132.060532 115.863441,132.029648 114.999603,131.726868 
	C114.758186,130.995483 114.521843,130.536011 114.285507,130.076553 
z"/>
<path fill="#1B191E" opacity="1.000000" stroke="none" 
	d="
M117.002014,105.999817 
	C117.002853,92.312576 117.003685,78.625336 117.252945,64.469238 
	C117.501366,64.000389 117.993546,64.000610 117.993546,64.000610 
	C117.995323,77.687935 117.997108,91.375252 117.749626,105.531281 
	C117.500366,105.999985 117.002014,105.999817 117.002014,105.999817 
z"/>
<path fill="#19171B" opacity="1.000000" stroke="none" 
	d="
M117.010864,118.001831 
	C117.009384,117.556442 117.007896,117.111061 117.300354,116.290161 
	C117.906357,115.594498 118.218414,115.274353 118.530472,114.954208 
	C118.023621,114.636902 117.516777,114.319603 117.009926,114.002296 
	C117.007050,113.251648 117.004173,112.500999 117.251160,111.375160 
	C117.501022,110.999969 118.000488,110.999878 118.000488,110.999878 
	C118.425613,110.993523 118.850746,110.987175 119.592529,110.958382 
	C120.536133,112.478958 121.163086,114.021980 121.996986,116.200729 
	C121.949326,117.276276 121.694717,117.716095 120.998207,118.116447 
	C119.374489,118.051933 118.192680,118.026886 117.010864,118.001831 
z"/>
<path fill="#1B181D" opacity="1.000000" stroke="none" 
	d="
M117.994995,63.625885 
	C117.993546,64.000610 117.501366,64.000389 117.255386,64.000656 
	C116.765694,62.880093 116.521973,61.759270 116.136841,60.318748 
	C116.662437,61.083088 117.329445,62.167122 117.994995,63.625885 
z"/>
<path fill="#1B181D" opacity="1.000000" stroke="none" 
	d="
M118.000244,110.583885 
	C118.000488,110.999878 117.501022,110.999969 117.251396,110.999832 
	C117.001228,109.610435 117.000687,108.221184 117.001076,106.415871 
	C117.002014,105.999817 117.500366,105.999985 117.749458,105.999931 
	C117.999031,107.389214 117.999519,108.778557 118.000244,110.583885 
z"/>
<path fill="#1D1B1F" opacity="1.000000" stroke="none" 
	d="
M114.735031,59.989044 
	C114.902000,60.522633 114.793640,61.047237 114.474915,61.742599 
	C114.017227,61.442112 113.769897,60.970867 113.440796,60.237160 
	C113.725922,59.976486 114.092812,59.978275 114.735031,59.989044 
z"/>
<path fill="#F9F9F9" opacity="1.000000" stroke="none" 
	d="
M121.440109,118.155907 
	C121.694717,117.716095 121.949326,117.276276 122.152428,116.529877 
	C125.090881,115.210258 128.331085,112.882065 131.030579,113.395691 
	C149.817596,116.970230 168.492462,121.134254 187.602158,125.041023 
	C192.591980,126.111931 197.894424,125.893242 200.325104,132.036804 
	C200.435654,133.479279 200.432968,134.256134 200.430298,135.032974 
	C199.802322,137.713028 199.174362,140.393066 198.603897,143.484894 
	C198.418121,144.832138 198.174866,145.767624 198.027039,146.797867 
	C198.122482,146.892639 198.182617,146.931183 198.167953,146.956253 
	C197.595016,148.937927 197.036728,150.894547 196.451965,153.314774 
	C195.291061,154.906555 194.156647,156.034744 192.969742,157.464294 
	C191.572128,158.092667 190.227020,158.419647 188.360809,158.666397 
	C187.225555,158.387894 186.611420,158.189606 185.997284,157.991333 
	C185.551010,157.939850 185.104736,157.888367 184.328583,157.908859 
	C183.605774,157.844147 183.212860,157.707474 182.487564,157.206360 
	C181.094772,156.589340 180.034363,156.336777 178.784271,155.871948 
	C178.049500,155.650467 177.504410,155.641281 176.620316,155.439606 
	C175.511841,155.194733 174.742340,155.142334 173.772812,154.891357 
	C173.035126,154.666458 172.497467,154.640137 171.593872,154.401398 
	C167.468750,153.514328 163.709579,152.839691 159.760223,151.955933 
	C159.032349,151.735672 158.494690,151.724518 157.585861,151.497208 
	C146.869415,149.129166 136.510498,147.040207 126.183533,144.803665 
	C119.096725,143.268845 118.093910,141.961975 118.038414,134.665985 
	C118.253799,133.609421 118.345070,132.892349 118.436340,132.175278 
	C118.657318,131.356766 118.878296,130.538254 119.170349,129.075195 
	C119.295387,128.014862 119.349358,127.599052 119.758530,127.010254 
	C120.401184,124.558784 120.688637,122.280289 121.110474,119.711349 
	C121.309937,118.999237 121.375023,118.577568 121.440109,118.155907 
z"/>
<path fill="#F8F8F8" opacity="1.000000" stroke="none" 
	d="
M185.127716,118.201813 
	C181.995117,118.277184 178.749512,118.135017 175.597366,117.516434 
	C168.987488,116.219284 162.426804,114.671486 155.500046,113.118622 
	C155.270752,97.033257 155.387329,81.055870 155.518982,64.618744 
	C157.414017,60.317726 160.491882,59.047867 164.689865,59.367653 
	C168.618454,59.666916 172.666458,58.958401 176.511536,59.597763 
	C179.086365,60.025906 181.398499,62.033783 183.968719,63.665279 
	C184.329422,64.508141 184.549606,65.020500 184.954285,65.767136 
	C185.111542,83.257088 185.084305,100.512787 185.127716,118.201813 
z"/>
<path fill="#1B4E4D" opacity="1.000000" stroke="none" 
	d="
M189.279602,111.059570 
	C189.792099,112.452385 189.978455,114.025047 189.902985,115.809402 
	C189.411926,114.427200 189.182693,112.833305 189.279602,111.059570 
z"/>
<path fill="#222327" opacity="1.000000" stroke="none" 
	d="
M200.708069,134.971008 
	C200.432968,134.256134 200.435654,133.479279 200.552979,132.327652 
	C200.773697,132.938263 200.879761,133.923660 200.708069,134.971008 
z"/>
<path fill="#0F0D11" opacity="1.000000" stroke="none" 
	d="
M159.950424,152.165054 
	C163.709579,152.839691 167.468750,153.514328 171.653748,154.643951 
	C172.710678,155.095947 173.341766,155.092941 173.972855,155.089935 
	C174.742340,155.142334 175.511841,155.194733 176.683563,155.681183 
	C177.715179,156.104904 178.344559,156.094559 178.973953,156.084229 
	C180.034363,156.336777 181.094772,156.589340 182.172684,157.185028 
	C182.106812,158.482178 182.023422,159.436172 181.917114,160.868561 
	C181.707214,161.289185 181.520203,161.231400 180.961517,160.720795 
	C179.409866,160.122421 178.229904,159.976852 177.049942,159.831268 
	C174.942123,159.493347 172.834320,159.155411 170.321838,158.359558 
	C169.284515,157.913361 168.651871,157.925079 168.019226,157.936798 
	C167.250977,157.881332 166.482742,157.825851 165.317093,157.332733 
	C164.289490,156.898636 163.659271,156.902161 163.029068,156.905701 
	C162.256195,156.834183 161.483307,156.762650 160.302582,156.253403 
	C159.274384,155.839874 158.654053,155.864059 158.033722,155.888245 
	C157.255417,155.810883 156.477097,155.733536 155.290817,155.210144 
	C154.268677,154.797012 153.654495,154.829971 153.040329,154.862915 
	C152.574905,154.858932 152.109497,154.854935 151.288147,154.416931 
	C150.291565,153.977554 149.650925,153.972214 149.010284,153.966888 
	C147.922256,153.858231 146.834244,153.749588 145.322876,153.200195 
	C144.287903,152.767014 143.676254,152.774551 143.064621,152.782074 
	C139.294189,152.104126 135.523773,151.426178 131.331100,150.287109 
	C130.286224,149.838089 129.663605,149.850189 129.040970,149.862289 
	C128.264023,149.801865 127.487061,149.741440 126.307800,149.241379 
	C125.287949,148.809082 124.670395,148.816406 124.052841,148.823715 
	C121.001907,146.678391 117.973030,144.500595 114.888145,142.405243 
	C113.798126,141.664856 112.571365,141.125793 110.571564,140.355957 
	C102.836441,140.424133 95.936783,140.631149 89.037132,140.838165 
	C83.118401,139.496017 80.565887,136.082886 80.127701,128.059616 
	C80.538467,127.289299 80.767044,127.156525 81.069748,127.415489 
	C81.737785,128.824387 82.373314,129.913162 83.181419,131.092529 
	C83.353996,131.183090 83.695976,131.370132 83.664383,131.601379 
	C84.262299,132.278198 84.891800,132.723770 85.521309,133.169342 
	C85.891899,133.639496 86.262489,134.109634 86.861557,135.197266 
	C94.349701,139.000717 101.727272,138.359634 109.142570,136.494141 
	C109.491814,136.329956 109.841057,136.165771 110.823425,136.017578 
	C112.650330,136.930679 113.844116,137.827805 114.819374,138.560699 
	C116.014099,137.188278 116.964195,136.096878 117.914291,135.005493 
	C118.093910,141.961975 119.096725,143.268845 126.183533,144.803665 
	C136.510498,147.040207 146.869415,149.129166 157.652313,151.729401 
	C158.710098,152.173538 159.330261,152.169296 159.950424,152.165054 
z"/>
<path fill="#161116" opacity="1.000000" stroke="none" 
	d="
M185.996490,160.257874 
	C186.451157,160.010742 186.908432,160.015106 187.708862,160.039246 
	C187.566238,160.360107 187.080460,160.661194 186.298248,160.987350 
	C186.000916,160.844757 186.000000,160.677063 185.996490,160.257874 
z"/>
<path fill="#1B181D" opacity="1.000000" stroke="none" 
	d="
M186.193893,158.244873 
	C186.611420,158.189606 187.225555,158.387894 188.018417,158.752670 
	C187.594925,158.778915 186.992722,158.638672 186.193893,158.244873 
z"/>
<path fill="#1B181D" opacity="1.000000" stroke="none" 
	d="
M81.037247,127.095390 
	C80.767044,127.156525 80.538467,127.289299 80.223923,127.648926 
	C79.029640,127.785652 77.962967,127.767174 76.465439,127.761230 
	C75.854248,127.267799 75.673920,126.761826 75.256561,126.108421 
	C75.011208,125.434669 75.002869,124.908356 74.986206,123.986740 
	C76.495850,122.210167 78.013824,120.828888 79.763214,119.224052 
	C81.177597,117.760101 82.360558,116.519714 83.813187,115.110840 
	C84.283516,119.974968 84.484184,125.007576 84.415695,130.521545 
	C83.996361,131.125320 83.846169,131.247726 83.695976,131.370132 
	C83.695976,131.370132 83.353996,131.183090 83.175804,130.657135 
	C82.997612,127.807678 82.997612,125.484177 82.997612,123.160675 
	C82.803871,123.153069 82.610130,123.145454 82.416389,123.137840 
	C81.956673,124.457024 81.496964,125.776207 81.037247,127.095390 
z"/>
<path fill="#373539" opacity="1.000000" stroke="none" 
	d="
M89.377693,141.057159 
	C95.936783,140.631149 102.836441,140.424133 110.227333,140.399902 
	C103.718468,140.813828 96.718361,141.044983 89.377693,141.057159 
z"/>
<path fill="#1D1B1F" opacity="1.000000" stroke="none" 
	d="
M177.316544,160.046494 
	C178.229904,159.976852 179.409866,160.122421 180.774475,160.494492 
	C179.833786,160.567886 178.708466,160.414795 177.316544,160.046494 
z"/>
<path fill="#1D1B1F" opacity="1.000000" stroke="none" 
	d="
M168.222260,158.132080 
	C168.651871,157.925079 169.284515,157.913361 169.978424,158.145111 
	C169.501556,158.368164 168.963425,158.347763 168.222260,158.132080 
z"/>
<path fill="#1D1B1F" opacity="1.000000" stroke="none" 
	d="
M163.216568,157.121124 
	C163.659271,156.902161 164.289490,156.898636 164.979919,157.138031 
	C164.494781,157.366150 163.949417,157.351349 163.216568,157.121124 
z"/>
<path fill="#1D1B1F" opacity="1.000000" stroke="none" 
	d="
M158.234039,156.083527 
	C158.654053,155.864059 159.274384,155.839874 159.968353,156.046402 
	C159.506134,156.277679 158.970245,156.278229 158.234039,156.083527 
z"/>
<path fill="#1D1B1F" opacity="1.000000" stroke="none" 
	d="
M153.250000,155.039246 
	C153.654495,154.829971 154.268677,154.797012 154.962540,154.986633 
	C154.514709,155.211334 153.987198,155.213440 153.250000,155.039246 
z"/>
<path fill="#1D1B1F" opacity="1.000000" stroke="none" 
	d="
M149.207047,154.172363 
	C149.650925,153.972214 150.291565,153.977554 150.983459,154.236877 
	C150.491074,154.453201 149.947449,154.415527 149.207047,154.172363 
z"/>
<path fill="#1D1B1F" opacity="1.000000" stroke="none" 
	d="
M143.255417,152.987762 
	C143.676254,152.774551 144.287903,152.767014 144.971313,152.982605 
	C144.510788,153.201630 143.978500,153.197525 143.255417,152.987762 
z"/>
<path fill="#1D1B1F" opacity="1.000000" stroke="none" 
	d="
M129.243027,150.055847 
	C129.663605,149.850189 130.286224,149.838089 130.975861,150.058929 
	C130.510284,150.277695 129.977676,150.263535 129.243027,150.055847 
z"/>
<path fill="#1D1B1F" opacity="1.000000" stroke="none" 
	d="
M124.239258,149.037781 
	C124.670395,148.816406 125.287949,148.809082 125.974213,149.031113 
	C125.503845,149.257599 124.964760,149.254715 124.239258,149.037781 
z"/>
<path fill="#504E51" opacity="1.000000" stroke="none" 
	d="
M108.678085,136.377563 
	C101.727272,138.359634 94.349701,139.000717 87.027252,135.447052 
	C94.047516,135.473206 101.130562,135.867096 108.678085,136.377563 
z"/>
<path fill="#1B181D" opacity="1.000000" stroke="none" 
	d="
M118.038406,134.665985 
	C116.964195,136.096878 116.014099,137.188278 114.819374,138.560699 
	C113.844116,137.827805 112.650330,136.930679 111.108521,135.966217 
	C111.585625,134.777283 112.410759,133.655701 113.695358,132.275482 
	C114.438019,132.006332 114.721313,132.000305 115.004692,131.998779 
	C115.863441,132.029648 116.722198,132.060532 118.008636,132.133347 
	C118.345070,132.892349 118.253799,133.609421 118.038406,134.665985 
z"/>
<path fill="#555357" opacity="1.000000" stroke="none" 
	d="
M83.664383,131.601379 
	C83.846169,131.247726 83.996361,131.125320 84.425400,130.920959 
	C85.006523,131.445129 85.308792,132.051254 85.566193,132.913361 
	C84.891800,132.723770 84.262299,132.278198 83.664383,131.601379 
z"/>
<path fill="#1D1B1F" opacity="1.000000" stroke="none" 
	d="
M114.999603,131.726868 
	C114.721313,132.000305 114.438019,132.006332 113.942368,132.020203 
	C113.784081,131.498825 113.838249,130.974091 114.088959,130.262955 
	C114.521843,130.536011 114.758186,130.995483 114.999603,131.726868 
z"/>
<path fill="#1B181D" opacity="1.000000" stroke="none" 
	d="
M119.403328,127.183243 
	C119.349358,127.599052 119.295387,128.014862 119.108665,128.716034 
	C114.808914,126.324020 118.035103,122.202179 117.007767,118.456909 
	C118.192680,118.026886 119.374489,118.051933 120.998199,118.116447 
	C121.375023,118.577568 121.309937,118.999237 120.753685,119.778549 
	C118.520378,122.307724 116.747208,124.475471 119.403328,127.183243 
z"/>
<path fill="#1B181D" opacity="1.000000" stroke="none" 
	d="
M117.007370,114.334846 
	C117.516777,114.319603 118.023621,114.636902 118.530472,114.954208 
	C118.218414,115.274353 117.906357,115.594498 117.302277,115.956116 
	C117.008438,115.554192 117.006622,115.110794 117.007370,114.334846 
z"/>
<path fill="#0F0D11" opacity="1.000000" stroke="none" 
	d="
M119.758530,127.010254 
	C116.747208,124.475471 118.520378,122.307724 120.619301,120.069000 
	C120.688637,122.280289 120.401184,124.558784 119.758530,127.010254 
z"/>
<path fill="#1D1B1F" opacity="1.000000" stroke="none" 
	d="
M159.760223,151.955933 
	C159.330261,152.169296 158.710098,152.173538 158.023468,151.945557 
	C158.494690,151.724518 159.032349,151.735672 159.760223,151.955933 
z"/>
<path fill="#1D1B1F" opacity="1.000000" stroke="none" 
	d="
M178.784271,155.871948 
	C178.344559,156.094559 177.715179,156.104904 177.022552,155.873672 
	C177.504410,155.641281 178.049500,155.650467 178.784271,155.871948 
z"/>
<path fill="#1D1B1F" opacity="1.000000" stroke="none" 
	d="
M173.772812,154.891357 
	C173.341766,155.092941 172.710678,155.095947 172.019714,154.856384 
	C172.497467,154.640137 173.035126,154.666458 173.772812,154.891357 
z"/>
<path fill="#060409" opacity="1.000000" stroke="none" 
	d="
M81.069748,127.415489 
	C81.496964,125.776207 81.956673,124.457024 82.416389,123.137840 
	C82.610130,123.145454 82.803871,123.153069 82.997612,123.160675 
	C82.997612,125.484177 82.997612,127.807678 83.003227,130.566559 
	C82.373314,129.913162 81.737785,128.824387 81.069748,127.415489 
z"/>
</svg>