<svg version="1.1" id="Layer_1" xmlns="http://www.w3.org/2000/svg" xmlns:xlink="http://www.w3.org/1999/xlink" x="0px" y="0px"
	 width="100%" viewBox="0 0 249 249" enable-background="new 0 0 249 249" xml:space="preserve">
<path fill="#1B191B" opacity="1.000000" stroke="none" 
	d="
M1.000004,227.000000 
	C1.000000,160.645767 1.000000,94.291542 1.350874,27.373882 
	C7.547683,14.105845 16.118780,4.730965 31.185696,2.978495 
	C32.260269,2.898747 33.034290,2.766244 34.280418,2.542957 
	C36.082478,2.386840 37.412418,2.264573 38.742378,2.264365 
	C95.888802,2.255446 153.035233,2.254543 210.181656,2.272061 
	C211.840485,2.272570 213.499268,2.481951 215.352066,2.738606 
	C216.028152,2.601042 216.510223,2.318815 217.357864,2.100887 
	C219.189758,2.789437 220.616653,3.537632 222.128525,4.018841 
	C237.821335,9.013693 246.287384,20.086620 248.939392,36.397217 
	C248.750031,96.544159 248.714127,156.242111 248.745773,215.940048 
	C248.746307,216.960251 249.563751,217.980026 250.000000,219.000000 
	C250.000000,219.000000 250.000000,219.500000 249.622482,219.779419 
	C248.508087,221.807358 247.508301,223.493744 247.077911,225.314697 
	C244.676666,235.474213 238.168518,242.277939 229.448822,247.347504 
	C227.956329,248.215225 226.482483,249.115036 225.000000,250.000000 
	C157.979111,250.000000 90.958206,250.000000 23.397871,249.652985 
	C14.193075,244.701599 7.036036,238.622787 3.074399,229.334137 
	C2.687207,228.426331 1.705667,227.771988 1.000004,227.000000 
M242.871567,220.764175 
	C242.871567,220.764175 242.862518,220.939468 243.579819,220.844452 
	C245.726715,219.146133 245.857376,217.534195 243.151154,215.355362 
	C243.229034,214.891739 243.306915,214.428116 244.089340,213.681549 
	C244.393448,212.452957 244.962540,211.224579 244.963547,209.995743 
	C245.007782,156.412628 245.014008,102.829468 244.934204,49.246437 
	C244.932114,47.842094 243.926086,46.439247 243.138657,44.214561 
	C243.219833,42.797897 243.300995,41.381237 244.053360,39.711571 
	C245.085449,37.010902 246.451294,34.273029 242.995575,31.442720 
	C242.381485,30.946518 241.767410,30.450315 241.028641,29.191544 
	C238.224640,19.022001 229.572906,10.993031 219.932556,9.108303 
	C219.190765,8.814729 218.448959,8.521154 216.806915,8.176390 
	C214.645645,8.073997 212.484421,7.882801 210.323120,7.882173 
	C153.195892,7.865587 96.068657,7.843298 38.941456,7.882370 
	C19.309418,7.895797 6.029518,21.058195 6.006443,40.676781 
	C5.938859,98.137024 5.941363,155.597458 6.011557,213.057693 
	C6.035310,232.501953 19.474236,245.734833 38.953949,245.784409 
	C52.611107,245.819168 66.268410,245.797012 79.925644,245.797134 
	C123.395630,245.797485 166.866470,245.642029 210.335114,245.883820 
	C224.569290,245.962967 239.596741,235.806992 241.849335,222.906219 
	C242.132019,222.185059 242.414703,221.463898 242.871567,220.764175 
z"/>
<path fill="#F7F7F7" opacity="1.000000" stroke="none" 
	d="
M249.099335,35.948235 
	C246.287384,20.086620 237.821335,9.013693 222.128525,4.018841 
	C220.616653,3.537632 219.189758,2.789437 217.324677,1.841479 
	C216.950623,1.345182 216.975311,1.172591 217.000000,1.000000 
	C227.928726,1.000000 238.857468,1.000000 250.000000,1.000000 
	C250.000000,12.353334 250.000000,23.708008 249.779968,35.429008 
	C249.559937,35.795334 249.099335,35.948235 249.099335,35.948235 
z"/>
<path fill="#FAFAFA" opacity="1.000000" stroke="none" 
	d="
M30.885147,2.925739 
	C16.118780,4.730965 7.547683,14.105845 1.350874,26.905224 
	C1.000000,18.400415 1.000000,9.800829 1.000000,1.000000 
	C11.019999,1.000000 21.041342,1.000000 31.526470,1.291384 
	C31.621887,2.030425 31.253517,2.478082 30.885147,2.925739 
z"/>
<path fill="#F8F8F8" opacity="1.000000" stroke="none" 
	d="
M225.468689,250.000000 
	C226.482483,249.115036 227.956329,248.215225 229.448822,247.347504 
	C238.168518,242.277939 244.676666,235.474213 247.077911,225.314697 
	C247.508301,223.493744 248.508087,221.807358 249.622482,220.029419 
	C250.000000,229.919754 250.000000,239.839508 250.000000,250.000000 
	C241.980713,250.000000 233.959030,250.000000 225.468689,250.000000 
z"/>
<path fill="#F7F6F7" opacity="1.000000" stroke="none" 
	d="
M1.000004,227.468719 
	C1.705667,227.771988 2.687207,228.426331 3.074399,229.334137 
	C7.036036,238.622787 14.193075,244.701599 22.929214,249.652985 
	C15.738759,250.000000 8.477518,250.000000 1.000000,250.000000 
	C1.000000,242.647232 1.000000,235.292343 1.000004,227.468719 
z"/>
<path fill="#AFAFB0" opacity="1.000000" stroke="none" 
	d="
M248.939392,36.397217 
	C249.099335,35.948235 249.559937,35.795334 249.779968,35.897667 
	C250.000000,96.687561 250.000000,157.375122 250.000000,218.531342 
	C249.563751,217.980026 248.746307,216.960251 248.745773,215.940048 
	C248.714127,156.242111 248.750031,96.544159 248.939392,36.397217 
z"/>
<path fill="#A2A2A3" opacity="1.000000" stroke="none" 
	d="
M215.158066,2.593943 
	C213.499268,2.481951 211.840485,2.272570 210.181656,2.272061 
	C153.035233,2.254543 95.888802,2.255446 38.742378,2.264365 
	C37.412418,2.264573 36.082478,2.386840 34.329918,2.134417 
	C33.938213,1.544439 33.969109,1.272220 34.000000,1.000000 
	C94.020897,1.000000 154.041794,1.000000 214.567291,1.398840 
	C215.100616,2.063101 215.129333,2.328522 215.158066,2.593943 
z"/>
<path fill="#4F4E52" opacity="1.000000" stroke="none" 
	d="
M33.666668,1.000000 
	C33.969109,1.272220 33.938213,1.544439 33.857815,2.225200 
	C33.034290,2.766244 32.260269,2.898747 31.185696,2.978495 
	C31.253517,2.478082 31.621887,2.030425 31.995129,1.291384 
	C32.444447,1.000000 32.888889,1.000000 33.666668,1.000000 
z"/>
<path fill="#4F4E52" opacity="1.000000" stroke="none" 
	d="
M215.352066,2.738606 
	C215.129333,2.328522 215.100616,2.063101 215.035950,1.398840 
	C215.444443,1.000000 215.888901,1.000000 216.666672,1.000000 
	C216.975311,1.172591 216.950623,1.345182 216.959122,1.777181 
	C216.510223,2.318815 216.028152,2.601042 215.352066,2.738606 
z"/>
<path fill="#B3CC33" opacity="1.000000" stroke="none" 
	d="
M243.384796,213.964493 
	C243.306915,214.428116 243.229034,214.891739 243.147095,216.091751 
	C243.049530,218.198578 242.956024,219.569031 242.862518,220.939468 
	C242.862518,220.939468 242.871567,220.764175 242.483688,220.850479 
	C241.801575,221.644775 241.507339,222.352768 241.213104,223.060760 
	C239.596741,235.806992 224.569290,245.962967 210.335114,245.883820 
	C166.866470,245.642029 123.395630,245.797485 79.925644,245.797134 
	C66.268410,245.797012 52.611107,245.819168 38.953949,245.784409 
	C19.474236,245.734833 6.035310,232.501953 6.011557,213.057693 
	C5.941363,155.597458 5.938859,98.137024 6.006443,40.676781 
	C6.029518,21.058195 19.309418,7.895797 38.941456,7.882370 
	C96.068657,7.843298 153.195892,7.865587 210.323120,7.882173 
	C212.484421,7.882801 214.645645,8.073997 217.376526,8.501965 
	C218.659836,9.137552 219.373550,9.447565 220.087265,9.757580 
	C229.572906,10.993031 238.224640,19.022001 241.038239,29.920044 
	C241.629684,31.514389 242.211517,32.380234 242.811462,33.667244 
	C243.013748,36.047131 243.197952,38.005852 243.382156,39.964573 
	C243.300995,41.381237 243.219833,42.797897 243.157990,45.080559 
	C243.157104,101.129807 243.135742,156.313065 243.127884,211.496323 
	C243.127777,212.319031 243.295441,213.141769 243.384796,213.964493 
M142.276489,49.550083 
	C142.217102,48.698681 142.157715,47.847275 142.813782,46.812599 
	C144.969604,42.042526 141.499710,33.029678 136.318970,31.071831 
	C136.318970,31.071831 135.879639,31.049757 135.607132,30.486975 
	C134.750900,29.965265 133.894653,29.443554 132.520294,28.462652 
	C130.968597,28.548666 129.416916,28.634680 127.305717,28.710073 
	C126.828125,28.974106 126.350533,29.238136 125.157814,29.648870 
	C119.845428,32.531128 118.329857,37.692120 116.687759,43.417343 
	C116.656303,43.966286 116.624847,44.515224 116.292000,45.686630 
	C116.256142,46.143055 116.220291,46.599476 115.730232,47.526077 
	C115.659386,48.372368 115.588531,49.218655 115.240875,50.771801 
	C115.192047,51.525028 115.143227,52.278255 114.699371,53.547867 
	C114.697617,54.386311 114.695854,55.224754 114.368050,56.811138 
	C114.300285,57.891201 114.232521,58.971260 113.770493,60.626846 
	C113.789627,61.772320 113.808762,62.917797 113.533707,64.904129 
	C113.430534,67.292915 113.327362,69.681702 112.779724,72.729881 
	C112.758720,76.507469 112.737709,80.285049 112.451454,84.951775 
	C112.434357,91.017342 112.417267,97.082916 111.652000,103.299423 
	C111.413193,103.387161 111.174393,103.474899 110.428535,103.110001 
	C109.602470,102.793083 108.776405,102.476173 107.390381,101.680161 
	C105.270767,101.814880 103.151161,101.949600 100.324181,102.107864 
	C96.516983,105.675484 92.709785,109.243103 89.495621,112.255005 
	C85.136826,111.758461 80.602631,111.241936 75.493896,110.525429 
	C74.804131,110.904480 74.114372,111.283531 72.759216,111.755394 
	C70.222870,114.851814 67.686523,117.948235 64.768272,121.304062 
	C64.615456,121.578926 64.410446,121.806831 63.350060,122.175850 
	C62.944168,122.649132 62.190361,123.117935 62.184219,123.596352 
	C62.080574,131.668472 62.012413,139.742645 62.133808,147.813385 
	C62.145119,148.565445 63.487457,149.297470 64.645615,150.557114 
	C66.356781,153.333755 68.067947,156.110397 69.527298,159.814560 
	C69.789627,167.843552 70.051949,175.872528 70.245071,184.593582 
	C70.373108,185.034943 70.501152,185.476288 70.406189,186.657791 
	C71.834373,190.614822 73.262566,194.571854 74.694656,198.824203 
	C74.694656,198.824203 74.902534,199.034012 74.959915,199.737885 
	C78.190094,202.942062 81.420273,206.146240 84.728096,209.138931 
	C84.728096,209.138931 84.702240,209.362717 85.054558,209.916046 
	C86.732712,210.406082 88.410866,210.896103 90.841629,211.701447 
	C91.919327,211.714493 92.997032,211.727539 94.720680,212.203278 
	C98.164146,212.374588 101.607620,212.545898 105.708260,212.883575 
	C106.157036,212.855652 106.605804,212.827728 107.741882,213.214706 
	C114.809334,213.083588 121.876793,212.952484 129.615097,212.934692 
	C130.059937,212.860916 130.504761,212.787125 131.761337,212.909714 
	C133.816696,212.526993 135.872055,212.144272 138.615341,211.808945 
	C139.049942,211.671112 139.484528,211.533279 140.658783,211.605621 
	C155.146576,208.641739 159.670166,203.152008 160.546951,187.187103 
	C161.352646,186.196228 162.158356,185.205353 163.537704,184.431046 
	C164.242264,184.073624 164.946808,183.716202 166.346329,183.360092 
	C173.336212,180.870071 177.016769,175.642487 177.697800,168.527527 
	C178.368561,161.520065 175.126617,156.154114 169.491898,152.045776 
	C168.048172,150.993118 167.049210,149.330444 166.210205,147.537186 
	C166.207092,147.010025 166.203995,146.482880 166.557556,145.332275 
	C166.625046,144.862335 166.692520,144.392410 167.184525,143.554276 
	C167.223495,143.020187 167.262466,142.486099 167.653305,141.336029 
	C167.706741,140.869843 167.760193,140.403656 168.218475,139.552628 
	C168.274460,139.020523 168.330444,138.488419 168.752701,137.305756 
	C168.949478,136.083237 169.146271,134.860733 169.814529,133.244919 
	C169.945206,132.484451 170.075897,131.723969 170.567184,130.338898 
	C170.630035,129.866211 170.692886,129.393524 171.179337,128.552658 
	C171.226639,128.019516 171.273956,127.486359 171.667099,126.336525 
	C171.717117,125.871330 171.767151,125.406143 172.217529,124.550774 
	C172.268616,124.018570 172.319687,123.486359 172.744461,122.306175 
	C172.939636,121.081184 173.134811,119.856186 173.801468,118.239525 
	C173.937057,117.481461 174.072632,116.723404 174.571472,115.340317 
	C174.632996,114.866524 174.694504,114.392731 175.181839,113.552635 
	C175.228256,113.019440 175.274673,112.486252 175.672318,111.339249 
	C175.724808,110.874283 175.777298,110.409325 176.226852,109.551247 
	C176.280014,109.019035 176.333176,108.486816 176.753952,107.304520 
	C176.948334,106.081467 177.142700,104.858421 177.809296,103.242416 
	C177.940613,102.483170 178.071930,101.723923 178.568741,100.340759 
	C178.630035,99.866776 178.691345,99.392792 179.169983,98.546272 
	C179.220291,98.014679 179.270615,97.483086 179.676804,96.339081 
	C179.726410,95.873169 179.776016,95.407265 180.210526,94.542145 
	C180.262177,94.013115 180.313828,93.484077 180.748459,92.311256 
	C180.943695,91.084671 181.138916,89.858078 181.806946,88.238350 
	C181.947433,87.480476 182.087921,86.722603 182.592575,85.342514 
	C182.650223,84.869370 182.707870,84.396225 183.181351,83.547585 
	C183.230408,83.015076 183.279465,82.482574 183.682220,81.338730 
	C183.733276,80.874275 183.784317,80.409813 184.218903,79.544250 
	C184.267242,79.014069 184.315598,78.483894 184.751328,77.311089 
	C184.944046,76.083015 185.136749,74.854950 185.801636,73.233627 
	C185.938126,72.476700 186.074600,71.719780 186.578766,70.341751 
	C186.640015,69.868607 186.701279,69.395454 187.174744,68.545509 
	C187.222931,68.014412 187.271103,67.483322 187.680695,66.342491 
	C187.731308,65.876457 187.781906,65.410423 188.212738,64.542068 
	C188.255295,64.013336 188.297852,63.484596 188.750153,62.284370 
	C189.118225,60.506413 189.486298,58.728455 190.245758,56.549747 
	C190.227448,56.018478 190.209137,55.487206 190.531769,54.114979 
	C190.422531,51.421787 190.313309,48.728592 190.423874,45.463814 
	C190.069534,44.758801 189.715195,44.053787 189.374313,42.658401 
	C187.418716,37.260052 183.676941,34.014469 177.516754,32.782383 
	C176.460052,33.068150 175.403351,33.353920 173.680023,33.689831 
	C172.266037,34.817875 170.258102,35.653503 169.535248,37.121799 
	C165.099564,46.131496 160.954620,55.284328 156.220718,64.775978 
	C155.580078,65.550301 154.939438,66.324623 153.558228,67.150116 
	C153.142120,69.150192 152.726013,71.150269 152.196548,73.884445 
	C151.769699,75.256813 151.342850,76.629189 150.269577,78.124901 
	C149.368195,78.570213 148.466827,79.015526 146.614059,79.930855 
	C146.614059,76.297333 146.842880,73.429138 146.488647,70.634850 
	C146.366394,69.670479 144.792664,68.890121 143.579849,67.470886 
	C143.649750,66.649551 143.719635,65.828224 144.409454,64.932610 
	C146.819870,63.067017 146.749054,61.714367 143.336197,60.350048 
	C143.376526,59.891182 143.416855,59.432312 144.128632,58.689461 
	C144.722427,55.631641 147.219101,52.231064 142.276489,49.550083 
z"/>
<path fill="#100A1A" opacity="1.000000" stroke="none" 
	d="
M243.737061,213.823029 
	C243.295441,213.141769 243.127777,212.319031 243.127884,211.496323 
	C243.135742,156.313065 243.157104,101.129807 243.282776,45.491127 
	C243.926086,46.439247 244.932114,47.842094 244.934204,49.246437 
	C245.014008,102.829468 245.007782,156.412628 244.963547,209.995743 
	C244.962540,211.224579 244.393448,212.452957 243.737061,213.823029 
z"/>
<path fill="#100A1A" opacity="1.000000" stroke="none" 
	d="
M243.717758,39.838074 
	C243.197952,38.005852 243.013748,36.047131 242.936310,33.375900 
	C243.095123,32.458912 243.147186,32.254429 243.199265,32.049946 
	C246.451294,34.273029 245.085449,37.010902 243.717758,39.838074 
z"/>
<path fill="#100A1A" opacity="1.000000" stroke="none" 
	d="
M243.221161,220.891968 
	C242.956024,219.569031 243.049530,218.198578 243.258377,216.431213 
	C245.857376,217.534195 245.726715,219.146133 243.221161,220.891968 
z"/>
<path fill="#404222" opacity="1.000000" stroke="none" 
	d="
M243.097412,31.746334 
	C243.147186,32.254429 243.095123,32.458912 242.918213,32.954739 
	C242.211517,32.380234 241.629684,31.514389 241.100586,30.301327 
	C241.767410,30.450315 242.381485,30.946518 243.097412,31.746334 
z"/>
<path fill="#404222" opacity="1.000000" stroke="none" 
	d="
M241.531219,222.983490 
	C241.507339,222.352768 241.801575,221.644775 242.396591,220.839752 
	C242.414703,221.463898 242.132019,222.185059 241.531219,222.983490 
z"/>
<path fill="#474D21" opacity="1.000000" stroke="none" 
	d="
M220.009918,9.432940 
	C219.373550,9.447565 218.659836,9.137552 217.826645,8.527561 
	C218.448959,8.521154 219.190765,8.814729 220.009918,9.432940 
z"/>
<path fill="#1B191D" opacity="1.000000" stroke="none" 
	d="
M181.334152,88.631493 
	C181.138916,89.858078 180.943695,91.084671 180.335663,92.707474 
	C179.890442,93.716248 179.858032,94.328804 179.825623,94.941353 
	C179.776016,95.407265 179.726410,95.873169 179.283875,96.721054 
	C178.844849,97.708290 178.798737,98.313545 178.752655,98.918800 
	C178.691345,99.392792 178.630035,99.866776 178.126633,100.817154 
	C177.568710,102.074150 177.452896,102.854759 177.337067,103.635368 
	C177.142700,104.858421 176.948334,106.081467 176.346497,107.702576 
	C175.902618,108.715210 175.866196,109.329788 175.829788,109.944359 
	C175.777298,110.409325 175.724808,110.874283 175.281586,111.721878 
	C174.845917,112.709312 174.800980,113.314125 174.756027,113.918938 
	C174.694504,114.392731 174.632996,114.866524 174.130234,115.816635 
	C173.569321,117.072372 173.449661,117.851784 173.329987,118.631195 
	C173.134811,119.856186 172.939636,121.081184 172.335754,122.703636 
	C171.890411,123.714378 171.853806,124.327667 171.817184,124.940948 
	C171.767151,125.406143 171.717117,125.871330 171.279205,126.721252 
	C170.846115,127.710930 170.800919,128.315887 170.755737,128.920837 
	C170.692886,129.393524 170.630035,129.866211 170.127487,130.816559 
	C169.572876,132.075546 169.457962,132.856888 169.343048,133.638214 
	C169.146271,134.860733 168.949478,136.083237 168.346008,137.702194 
	C167.897415,138.711578 167.855515,139.324524 167.813629,139.937469 
	C167.760193,140.403656 167.706741,140.869843 167.264297,141.722778 
	C166.836868,142.713837 166.798447,143.318161 166.760010,143.922470 
	C166.692520,144.392410 166.625046,144.862335 166.174408,145.737885 
	C165.809494,146.745010 165.827698,147.346527 165.845917,147.948029 
	C167.049210,149.330444 168.048172,150.993118 169.491898,152.045776 
	C175.126617,156.154114 178.368561,161.520065 177.697800,168.527527 
	C177.016769,175.642487 173.336212,180.870071 165.685913,183.272888 
	C164.338333,183.528625 163.651199,183.871552 162.964050,184.214478 
	C162.158356,185.205353 161.352646,186.196228 160.083771,187.549103 
	C158.492935,187.269714 157.365265,186.628311 156.079468,185.639984 
	C153.938873,184.604385 152.004303,183.672867 149.965317,183.270828 
	C142.776901,181.853470 135.509796,180.815018 128.353806,179.259018 
	C120.784966,177.613235 116.045631,172.296631 115.223282,164.822418 
	C114.960205,164.063614 114.478348,163.480865 113.998535,162.487640 
	C115.649910,157.561905 117.299263,153.046631 119.345123,148.635910 
	C126.152390,144.163391 133.065369,143.582428 140.619843,145.427826 
	C147.193054,147.033524 153.950516,147.884918 160.728622,149.087753 
	C165.866745,129.861191 170.889984,111.070831 175.909470,92.279472 
	C178.830475,81.344200 182.056107,70.476593 184.517578,59.438702 
	C185.572998,54.705967 185.911209,49.424129 184.883667,44.764843 
	C184.285873,42.054260 180.653030,39.289818 177.753845,38.131767 
	C176.414337,37.596710 172.937927,40.419827 171.531738,42.474239 
	C168.923813,46.284290 166.629486,50.471989 165.085770,54.815605 
	C161.132126,65.940224 157.487808,77.183769 154.055481,88.481743 
	C151.446411,97.069885 149.565598,105.881775 146.865540,114.437828 
	C146.263351,116.346123 143.588074,117.600212 141.867264,119.155502 
	C140.693375,117.184647 139.519485,115.213791 138.687836,113.108055 
	C139.689896,112.649307 140.349686,112.325432 141.304169,112.121460 
	C145.462555,112.654236 145.221634,110.590698 144.068542,107.771477 
	C144.028442,107.349388 144.063965,107.178291 144.378876,106.960541 
	C144.757767,106.271919 144.857285,105.629959 145.036713,104.656296 
	C145.260773,103.894402 145.404892,103.464203 145.857544,102.889267 
	C147.027435,99.610855 147.888443,96.477089 148.750168,93.343521 
	C151.404266,83.692139 154.058640,74.040840 156.712906,64.389511 
	C160.954620,55.284328 165.099564,46.131496 169.535248,37.121799 
	C170.258102,35.653503 172.266037,34.817875 174.393738,33.762745 
	C176.052017,33.614510 176.996567,33.393356 177.941132,33.172203 
	C183.676941,34.014469 187.418716,37.260052 189.280518,43.316025 
	C189.525833,44.660904 189.864960,45.348152 190.204086,46.035400 
	C190.313309,48.728592 190.422531,51.421787 190.156677,54.629196 
	C189.805832,55.745777 189.830109,56.348137 189.854370,56.950500 
	C189.486298,58.728455 189.118225,60.506413 188.326614,62.697792 
	C187.879562,63.722275 187.856033,64.333328 187.832520,64.944389 
	C187.781906,65.410423 187.731308,65.876457 187.284912,66.723312 
	C186.846924,67.710190 186.804718,68.316254 186.762512,68.922310 
	C186.701279,69.395454 186.640015,69.868607 186.134430,70.814720 
	C185.569885,72.067421 185.449677,72.847145 185.329468,73.626877 
	C185.136749,74.854950 184.944046,76.083015 184.336365,77.708321 
	C183.892715,78.718819 183.864029,79.332092 183.835358,79.945358 
	C183.784317,80.409813 183.733276,80.874275 183.288940,81.720184 
	C182.852280,82.708786 182.808899,83.315933 182.765503,83.923073 
	C182.707870,84.396225 182.650223,84.869370 182.147491,85.814346 
	C181.579651,87.067955 181.456909,87.849724 181.334152,88.631493 
M141.892181,149.863251 
	C141.268600,149.885391 140.645004,149.907547 139.182892,150.025223 
	C138.362396,149.887192 137.541870,149.749374 136.721420,149.611069 
	C127.566833,148.068039 120.475685,152.273438 119.193634,160.005997 
	C117.964378,167.420105 123.292160,173.652222 132.184219,175.233826 
	C140.047455,176.632431 147.900665,178.088104 155.768509,179.460037 
	C164.652710,181.009201 171.569534,176.860306 172.911301,169.248154 
	C174.200958,161.931458 169.169083,155.635651 160.627441,153.937805 
	C154.436707,152.707245 148.235504,151.529404 141.892181,149.863251 
z"/>
<path fill="#131117" opacity="1.000000" stroke="none" 
	d="
M118.948608,148.531357 
	C117.299263,153.046631 115.649910,157.561905 113.963608,162.642227 
	C113.872032,163.416306 113.879951,163.622925 113.616943,164.047348 
	C104.579414,170.868896 95.777756,168.379990 91.925201,157.990463 
	C92.453835,157.242752 92.693214,156.650681 92.912186,155.761993 
	C92.585670,155.141083 92.279579,154.816803 91.973488,154.492523 
	C91.647285,154.991699 91.321075,155.490875 90.784073,156.098740 
	C90.364983,156.612564 90.156685,157.017700 89.697922,157.697937 
	C85.177467,162.659927 79.481079,161.896698 73.981003,162.007080 
	C73.947350,162.002029 73.922272,161.938766 73.953461,161.540222 
	C74.413681,159.717361 74.842705,158.293015 75.700165,156.884094 
	C81.563194,158.541489 85.350159,155.974426 88.949524,151.974655 
	C90.522308,151.282867 91.739601,150.636414 93.004028,150.253937 
	C93.446526,151.052032 93.841888,151.586166 94.406586,152.472061 
	C95.192093,154.533981 95.577019,156.375961 96.464050,157.931671 
	C100.528465,165.059952 108.089806,165.082413 112.168831,157.982056 
	C113.060379,156.430130 113.996033,154.609497 114.019722,152.900269 
	C114.187347,140.805161 114.529655,128.687286 113.950378,116.618256 
	C113.683426,111.056435 110.353516,106.644753 103.853958,105.710617 
	C103.088219,105.777412 102.455017,106.040703 101.531670,106.517105 
	C98.933342,110.113876 96.625168,113.497536 94.091263,116.917503 
	C93.578064,117.302200 93.290604,117.650597 92.751549,117.998055 
	C92.332230,117.996719 92.164505,117.996323 91.986275,117.637909 
	C91.325760,116.608337 90.675743,115.936790 90.025726,115.265244 
	C89.737251,115.779472 89.448776,116.293701 89.160301,116.807930 
	C90.105446,117.204224 91.050583,117.600517 92.022278,118.288849 
	C92.352257,119.053635 92.655685,119.526367 93.227386,120.022964 
	C93.674637,120.032486 93.853615,120.018158 94.127701,120.373505 
	C94.158585,121.498199 94.094360,122.253204 93.763161,122.980530 
	C93.317749,122.966148 93.139313,122.979462 92.634216,122.993332 
	C91.436729,122.995453 90.565903,122.997017 89.465324,122.700897 
	C86.320343,116.433495 82.239754,113.936096 77.240128,115.061760 
	C71.916290,116.260422 69.043610,120.407158 69.013557,127.019516 
	C68.987160,132.828339 69.198174,138.645752 68.944382,144.443588 
	C68.749657,148.891922 69.969139,152.586090 72.973770,155.954742 
	C72.196121,157.178223 71.594063,158.105728 70.789093,159.012573 
	C70.319489,158.939056 70.050461,158.904114 69.779114,158.887039 
	C68.067947,156.110397 66.356781,153.333755 64.466286,149.826904 
	C64.422432,140.425842 64.557915,131.754990 64.947601,122.971069 
	C65.184593,122.253540 65.167381,121.649094 65.150177,121.044647 
	C67.686523,117.948235 70.222870,114.851814 73.403755,111.793793 
	C74.721672,111.463257 75.395050,111.094330 76.068420,110.725403 
	C80.602631,111.241936 85.136826,111.758461 89.495621,112.255005 
	C92.709785,109.243103 96.516983,105.675484 100.947937,102.345734 
	C103.697906,102.442146 105.824127,102.300697 107.950340,102.159256 
	C108.776405,102.476173 109.602470,102.793083 110.753815,103.563560 
	C111.587082,104.142288 112.095078,104.267456 112.603073,104.392632 
	C112.535439,103.977913 112.467804,103.563202 112.400169,103.148483 
	C112.417267,97.082916 112.434357,91.017342 112.881821,84.307411 
	C113.282860,79.798859 113.253525,75.934677 113.224190,72.070488 
	C113.327362,69.681702 113.430534,67.292915 113.923698,64.329926 
	C114.264046,62.520924 114.214401,61.286125 114.164757,60.051323 
	C114.232521,58.971260 114.300285,57.891201 114.778717,56.323036 
	C115.157722,54.900452 115.126068,53.965969 115.094406,53.031483 
	C115.143227,52.278255 115.192047,51.525028 115.645668,50.328323 
	C116.095116,48.941868 116.139778,47.998882 116.184441,47.055901 
	C116.220291,46.599476 116.256142,46.143055 116.671837,45.300034 
	C117.075165,44.288246 117.098648,43.663055 117.122131,43.037868 
	C118.329857,37.692120 119.845428,32.531128 125.647644,29.880852 
	C126.713387,29.648785 127.289307,29.184740 127.865219,28.720695 
	C129.416916,28.634680 130.968597,28.548666 132.813766,29.034290 
	C134.031372,30.087206 134.955505,30.568483 135.879639,31.049759 
	C135.879639,31.049757 136.318970,31.071831 136.600876,31.444687 
	C138.259964,35.878418 139.637161,39.939297 140.771469,44.164940 
	C140.359268,44.880867 140.189941,45.432030 139.347412,46.288353 
	C138.290298,46.902126 137.906403,47.210735 137.281021,47.219658 
	C136.390991,44.351200 136.127365,41.593678 134.986176,39.266499 
	C133.833817,36.916565 131.811325,34.993324 130.170029,32.883156 
	C127.879356,34.803963 125.343712,36.509491 123.393059,38.729107 
	C122.284431,39.990593 121.938118,42.054424 121.585846,43.824078 
	C120.391640,49.823257 119.347816,55.852367 118.016556,61.953403 
	C117.864220,62.692318 117.941864,63.347878 118.059189,64.465500 
	C117.795937,68.907562 117.492996,72.887558 116.913086,77.064697 
	C116.749092,79.506485 116.862068,81.751144 117.038528,84.461090 
	C117.720284,95.653458 118.574799,106.373604 118.889587,117.109589 
	C119.196442,127.575089 118.951363,138.056778 118.948608,148.531357 
z"/>
<path fill="#0D0A12" opacity="1.000000" stroke="none" 
	d="
M130.949600,212.713348 
	C130.504761,212.787125 130.059937,212.860916 128.962753,212.620056 
	C121.225136,212.470215 114.139854,212.635010 107.054581,212.799805 
	C106.605804,212.827728 106.157036,212.855652 105.243835,212.447342 
	C101.211182,211.920944 97.642952,211.830765 94.074730,211.740601 
	C92.997032,211.727539 91.919327,211.714493 90.324753,211.255646 
	C88.106003,210.327469 86.404121,209.845093 84.702240,209.362701 
	C84.702240,209.362717 84.728096,209.138931 84.788834,208.709595 
	C84.938530,207.202682 85.027489,206.125107 85.518555,205.051331 
	C86.599205,205.480576 87.277756,205.905991 87.984169,206.596695 
	C88.664825,206.946793 89.317612,207.031601 90.389954,207.108826 
	C92.182961,207.303696 93.556404,207.506195 95.040756,207.971008 
	C96.101387,208.154449 97.051102,208.075546 98.433868,207.917816 
	C100.889755,208.081329 102.912590,208.323654 105.090652,208.885956 
	C107.830971,209.134857 110.416054,209.063766 113.452148,208.890854 
	C117.599228,208.848465 121.295303,208.907898 125.229980,209.234863 
	C127.333702,209.180237 129.198807,208.858093 131.432465,208.368347 
	C132.872223,208.151611 133.943466,208.102478 135.132172,208.265045 
	C135.857956,208.238052 136.466263,207.999313 137.434814,207.573318 
	C138.861282,207.242599 139.927505,207.099152 141.181213,207.213837 
	C142.127197,207.943466 142.885712,208.414932 143.787231,208.975281 
	C142.272690,209.922897 141.095901,210.659164 139.919128,211.395447 
	C139.484528,211.533279 139.049942,211.671112 137.989487,211.553406 
	C135.225616,211.769684 133.087616,212.241516 130.949600,212.713348 
z"/>
<path fill="#2A2926" opacity="1.000000" stroke="none" 
	d="
M140.288956,211.500534 
	C141.095901,210.659164 142.272690,209.922897 143.787231,208.975281 
	C142.885712,208.414932 142.127197,207.943466 141.429504,206.961502 
	C149.745056,204.706238 155.045486,200.376892 155.131180,191.236252 
	C155.147629,189.483154 155.851089,187.736526 156.237579,185.986908 
	C157.365265,186.628311 158.492935,187.269714 159.902512,187.910446 
	C159.670166,203.152008 155.146576,208.641739 140.288956,211.500534 
z"/>
<path fill="#B7D034" opacity="1.000000" stroke="none" 
	d="
M144.099503,107.007187 
	C144.063965,107.178291 144.028442,107.349388 143.930664,107.981049 
	C143.287750,108.280090 142.707047,108.118568 142.072601,107.536240 
	C142.034149,105.418869 142.049469,103.722313 142.391769,101.752602 
	C143.106491,90.328201 143.494232,79.176956 143.881989,68.025703 
	C144.792664,68.890121 146.366394,69.670479 146.488647,70.634850 
	C146.842880,73.429138 146.614059,76.297333 146.614059,79.930855 
	C148.466827,79.015526 149.368195,78.570213 150.645935,78.451355 
	C150.973160,79.094536 150.943146,79.415619 150.872055,79.727341 
	C149.100342,87.496834 147.324295,95.265335 145.549011,103.034012 
	C145.404892,103.464203 145.260773,103.894402 144.742798,104.768723 
	C144.279144,105.810966 144.189331,106.409073 144.099503,107.007187 
z"/>
<path fill="#0D0A12" opacity="1.000000" stroke="none" 
	d="
M70.629189,185.917648 
	C70.501152,185.476288 70.373108,185.034943 70.510010,183.917435 
	C70.841522,176.151947 70.908096,169.062622 71.343895,161.979279 
	C72.449501,161.969772 73.185890,161.954269 73.922272,161.938766 
	C73.922272,161.938766 73.947350,162.002029 74.021133,162.472992 
	C74.058258,168.631027 74.021606,174.318100 73.744614,180.165161 
	C73.786781,181.241013 74.069283,182.156876 74.524918,183.437134 
	C74.807098,184.865753 74.916153,185.929947 74.798309,187.125610 
	C74.908806,187.855347 75.246201,188.453644 75.758018,189.398361 
	C76.917343,192.388412 77.902245,195.032028 78.487320,197.815887 
	C77.025841,198.315414 75.964188,198.674713 74.902534,199.034012 
	C74.902534,199.034012 74.694656,198.824203 74.760292,198.265106 
	C73.427017,193.776550 72.028099,189.847092 70.629189,185.917648 
z"/>
<path fill="#2A2926" opacity="1.000000" stroke="none" 
	d="
M143.730927,67.748291 
	C143.494232,79.176956 143.106491,90.328201 142.106628,101.446732 
	C141.365509,86.856636 141.218964,72.299332 141.168716,57.741699 
	C141.166611,57.129467 142.060898,56.514141 142.721466,56.260017 
	C143.089294,57.404339 143.273239,58.188892 143.457184,58.973446 
	C143.416855,59.432312 143.376526,59.891182 143.358353,61.070686 
	C143.516846,62.863182 143.653198,63.935036 143.789536,65.006889 
	C143.719635,65.828224 143.649750,66.649551 143.730927,67.748291 
z"/>
<path fill="#2A2926" opacity="1.000000" stroke="none" 
	d="
M145.857544,102.889267 
	C147.324295,95.265335 149.100342,87.496834 150.872055,79.727341 
	C150.943146,79.415619 150.973160,79.094536 150.969162,78.389687 
	C151.342850,76.629189 151.769699,75.256813 152.542862,73.298431 
	C153.359055,70.841263 153.828934,68.970108 154.298828,67.098938 
	C154.939438,66.324623 155.580078,65.550301 156.466812,64.582748 
	C154.058640,74.040840 151.404266,83.692139 148.750168,93.343521 
	C147.888443,96.477089 147.027435,99.610855 145.857544,102.889267 
z"/>
<path fill="#BFDA35" opacity="1.000000" stroke="none" 
	d="
M64.693398,123.084152 
	C64.557915,131.754990 64.422432,140.425842 64.249374,149.567749 
	C63.487457,149.297470 62.145119,148.565445 62.133808,147.813385 
	C62.012413,139.742645 62.080574,131.668472 62.184219,123.596352 
	C62.190361,123.117935 62.944168,122.649132 63.821194,122.279922 
	C64.294739,122.692612 64.428429,122.925995 64.693398,123.084152 
z"/>
<path fill="#2A2926" opacity="1.000000" stroke="none" 
	d="
M74.931229,199.385956 
	C75.964188,198.674713 77.025841,198.315414 78.736679,197.933762 
	C81.296059,200.290115 83.206253,202.668808 85.116455,205.047516 
	C85.027489,206.125107 84.938530,207.202682 84.750000,208.815338 
	C81.420273,206.146240 78.190094,202.942062 74.931229,199.385956 
z"/>
<path fill="#2A2926" opacity="1.000000" stroke="none" 
	d="
M70.974670,161.973282 
	C70.908096,169.062622 70.841522,176.151947 70.544617,183.571411 
	C70.051949,175.872528 69.789627,167.843552 69.653206,159.350800 
	C70.050461,158.904114 70.319489,158.939056 70.786240,159.379684 
	C70.982414,160.502747 70.978546,161.238007 70.974670,161.973282 
z"/>
<path fill="#2A2926" opacity="1.000000" stroke="none" 
	d="
M107.398232,213.007263 
	C114.139854,212.635010 121.225136,212.470215 128.627319,212.563416 
	C121.876793,212.952484 114.809334,213.083588 107.398232,213.007263 
z"/>
<path fill="#B7D034" opacity="1.000000" stroke="none" 
	d="
M141.014343,44.000175 
	C139.637161,39.939297 138.259964,35.878418 136.820724,31.451180 
	C141.499710,33.029678 144.969604,42.042526 142.340683,46.576477 
	C141.583176,45.560291 141.298752,44.780231 141.014343,44.000175 
z"/>
<path fill="#2A2926" opacity="1.000000" stroke="none" 
	d="
M113.001953,72.400185 
	C113.253525,75.934677 113.282860,79.798859 113.014450,83.862839 
	C112.737709,80.285049 112.758720,76.507469 113.001953,72.400185 
z"/>
<path fill="#2A2926" opacity="1.000000" stroke="none" 
	d="
M94.397705,211.971924 
	C97.642952,211.830765 101.211182,211.920944 104.915245,212.364166 
	C101.607620,212.545898 98.164146,212.374588 94.397705,211.971924 
z"/>
<path fill="#2A2926" opacity="1.000000" stroke="none" 
	d="
M70.517685,186.287720 
	C72.028099,189.847092 73.427017,193.776550 74.758339,198.117432 
	C73.262566,194.571854 71.834373,190.614822 70.517685,186.287720 
z"/>
<path fill="#2A2926" opacity="1.000000" stroke="none" 
	d="
M140.771454,44.164940 
	C141.298752,44.780231 141.583176,45.560291 141.982971,46.668114 
	C142.157715,47.847275 142.217102,48.698681 142.379700,50.172230 
	C142.356049,51.226669 142.229202,51.658966 141.776093,52.020943 
	C140.973419,49.961479 140.497025,47.972332 140.020630,45.983192 
	C140.189941,45.432030 140.359268,44.880867 140.771454,44.164940 
z"/>
<path fill="#B7D034" opacity="1.000000" stroke="none" 
	d="
M142.102371,52.091263 
	C142.229202,51.658966 142.356049,51.226669 142.533539,50.454723 
	C147.219101,52.231064 144.722427,55.631641 143.792908,58.831451 
	C143.273239,58.188892 143.089294,57.404339 142.831024,56.017921 
	C142.538589,54.307796 142.320480,53.199528 142.102371,52.091263 
z"/>
<path fill="#2A2926" opacity="1.000000" stroke="none" 
	d="
M107.670364,101.919708 
	C105.824127,102.300697 103.697906,102.442146 101.301620,102.333954 
	C103.151161,101.949600 105.270767,101.814880 107.670364,101.919708 
z"/>
<path fill="#2A2926" opacity="1.000000" stroke="none" 
	d="
M131.355469,212.811523 
	C133.087616,212.241516 135.225616,211.769684 137.645523,211.529694 
	C135.872055,212.144272 133.816696,212.526993 131.355469,212.811523 
z"/>
<path fill="#B7D034" opacity="1.000000" stroke="none" 
	d="
M144.099487,64.969749 
	C143.653198,63.935036 143.516846,62.863182 143.488373,61.395088 
	C146.749054,61.714367 146.819870,63.067017 144.099487,64.969749 
z"/>
<path fill="#B7D034" opacity="1.000000" stroke="none" 
	d="
M153.928528,67.124527 
	C153.828934,68.970108 153.359055,70.841263 152.599533,72.931381 
	C152.726013,71.150269 153.142120,69.150192 153.928528,67.124527 
z"/>
<path fill="#2A2926" opacity="1.000000" stroke="none" 
	d="
M84.878403,209.639374 
	C86.404121,209.845093 88.106003,210.327469 89.948448,211.097992 
	C88.410866,210.896103 86.732712,210.406082 84.878403,209.639374 
z"/>
<path fill="#2A2926" opacity="1.000000" stroke="none" 
	d="
M113.967621,60.339085 
	C114.214401,61.286125 114.264046,62.520924 114.070801,63.909500 
	C113.808762,62.917797 113.789627,61.772320 113.967621,60.339085 
z"/>
<path fill="#2A2926" opacity="1.000000" stroke="none" 
	d="
M177.728943,32.977295 
	C176.996567,33.393356 176.052017,33.614510 174.727051,33.737671 
	C175.403351,33.353920 176.460052,33.068150 177.728943,32.977295 
z"/>
<path fill="#2A2926" opacity="1.000000" stroke="none" 
	d="
M114.896896,53.289673 
	C115.126068,53.965969 115.157722,54.900452 114.941734,55.949066 
	C114.695854,55.224754 114.697617,54.386311 114.896896,53.289673 
z"/>
<path fill="#2A2926" opacity="1.000000" stroke="none" 
	d="
M115.957336,47.290989 
	C116.139778,47.998882 116.095116,48.941868 115.784073,49.974899 
	C115.588531,49.218655 115.659386,48.372368 115.957336,47.290989 
z"/>
<path fill="#2A2926" opacity="1.000000" stroke="none" 
	d="
M135.743378,30.768368 
	C134.955505,30.568483 134.031372,30.087206 133.072830,29.263885 
	C133.894653,29.443554 134.750900,29.965265 135.743378,30.768368 
z"/>
<path fill="#2A2926" opacity="1.000000" stroke="none" 
	d="
M166.028046,147.742615 
	C165.827698,147.346527 165.809494,146.745010 165.996094,146.049622 
	C166.203995,146.482880 166.207092,147.010025 166.028046,147.742615 
z"/>
<path fill="#2A2926" opacity="1.000000" stroke="none" 
	d="
M188.022629,64.743225 
	C187.856033,64.333328 187.879562,63.722275 188.121735,63.033539 
	C188.297852,63.484596 188.255295,64.013336 188.022629,64.743225 
z"/>
<path fill="#2A2926" opacity="1.000000" stroke="none" 
	d="
M163.250885,184.322754 
	C163.651199,183.871552 164.338333,183.528625 165.338409,183.272247 
	C164.946808,183.716202 164.242264,184.073624 163.250885,184.322754 
z"/>
<path fill="#2A2926" opacity="1.000000" stroke="none" 
	d="
M190.050064,56.750122 
	C189.830109,56.348137 189.805832,55.745777 189.986206,55.049675 
	C190.209137,55.487206 190.227448,56.018478 190.050064,56.750122 
z"/>
<path fill="#2A2926" opacity="1.000000" stroke="none" 
	d="
M190.313980,45.749611 
	C189.864960,45.348152 189.525833,44.660904 189.273773,43.661217 
	C189.715195,44.053787 190.069534,44.758801 190.313980,45.749611 
z"/>
<path fill="#2A2926" opacity="1.000000" stroke="none" 
	d="
M116.904945,43.227608 
	C117.098648,43.663055 117.075165,44.288246 116.822533,44.988800 
	C116.624847,44.515224 116.656303,43.966286 116.904945,43.227608 
z"/>
<path fill="#2A2926" opacity="1.000000" stroke="none" 
	d="
M173.565735,118.435364 
	C173.449661,117.851784 173.569321,117.072372 173.948608,116.129150 
	C174.072632,116.723404 173.937057,117.481461 173.565735,118.435364 
z"/>
<path fill="#2A2926" opacity="1.000000" stroke="none" 
	d="
M181.570557,88.434921 
	C181.456909,87.849724 181.579651,87.067955 181.965424,86.125458 
	C182.087921,86.722603 181.947433,87.480476 181.570557,88.434921 
z"/>
<path fill="#2A2926" opacity="1.000000" stroke="none" 
	d="
M184.027130,79.744804 
	C183.864029,79.332092 183.892715,78.718819 184.142670,78.029633 
	C184.315598,78.483894 184.267242,79.014069 184.027130,79.744804 
z"/>
<path fill="#2A2926" opacity="1.000000" stroke="none" 
	d="
M180.018066,94.741745 
	C179.858032,94.328804 179.890442,93.716248 180.144165,93.029373 
	C180.313828,93.484077 180.262177,94.013115 180.018066,94.741745 
z"/>
<path fill="#2A2926" opacity="1.000000" stroke="none" 
	d="
M178.961304,98.732536 
	C178.798737,98.313545 178.844849,97.708290 179.105927,97.027267 
	C179.270615,97.483086 179.220291,98.014679 178.961304,98.732536 
z"/>
<path fill="#2A2926" opacity="1.000000" stroke="none" 
	d="
M177.573181,103.438889 
	C177.452896,102.854759 177.568710,102.074150 177.943878,101.129105 
	C178.071930,101.723923 177.940613,102.483170 177.573181,103.438889 
z"/>
<path fill="#2A2926" opacity="1.000000" stroke="none" 
	d="
M112.026085,103.223953 
	C112.467804,103.563202 112.535439,103.977913 112.603073,104.392632 
	C112.095078,104.267456 111.587082,104.142288 111.007339,103.789879 
	C111.174393,103.474899 111.413193,103.387161 112.026085,103.223953 
z"/>
<path fill="#2A2926" opacity="1.000000" stroke="none" 
	d="
M127.585464,28.715385 
	C127.289307,29.184740 126.713387,29.648785 126.005203,29.807499 
	C126.350533,29.238136 126.828125,28.974106 127.585464,28.715385 
z"/>
<path fill="#2A2926" opacity="1.000000" stroke="none" 
	d="
M176.028320,109.747803 
	C175.866196,109.329788 175.902618,108.715210 176.162689,108.027618 
	C176.333176,108.486816 176.280014,109.019035 176.028320,109.747803 
z"/>
<path fill="#2A2926" opacity="1.000000" stroke="none" 
	d="
M75.781158,110.625412 
	C75.395050,111.094330 74.721672,111.463257 73.736450,111.747383 
	C74.114372,111.283531 74.804131,110.904480 75.781158,110.625412 
z"/>
<path fill="#2A2926" opacity="1.000000" stroke="none" 
	d="
M174.968933,113.735786 
	C174.800980,113.314125 174.845917,112.709312 175.105988,112.028778 
	C175.274673,112.486252 175.228256,113.019440 174.968933,113.735786 
z"/>
<path fill="#2A2926" opacity="1.000000" stroke="none" 
	d="
M64.947601,122.971069 
	C64.428429,122.925995 64.294739,122.692612 64.222778,122.185883 
	C64.410446,121.806831 64.615456,121.578926 64.959229,121.174355 
	C65.167381,121.649094 65.184593,122.253540 64.947601,122.971069 
z"/>
<path fill="#2A2926" opacity="1.000000" stroke="none" 
	d="
M185.565552,73.430252 
	C185.449677,72.847145 185.569885,72.067421 185.950592,71.125275 
	C186.074600,71.719780 185.938126,72.476700 185.565552,73.430252 
z"/>
<path fill="#2A2926" opacity="1.000000" stroke="none" 
	d="
M186.968628,68.733910 
	C186.804718,68.316254 186.846924,67.710190 187.104202,67.028183 
	C187.271103,67.483322 187.222931,68.014412 186.968628,68.733910 
z"/>
<path fill="#2A2926" opacity="1.000000" stroke="none" 
	d="
M172.017365,124.745865 
	C171.853806,124.327667 171.890411,123.714378 172.148895,123.027626 
	C172.319687,123.486359 172.268616,124.018570 172.017365,124.745865 
z"/>
<path fill="#2A2926" opacity="1.000000" stroke="none" 
	d="
M170.967529,128.736755 
	C170.800919,128.315887 170.846115,127.710930 171.106293,127.029594 
	C171.273956,127.486359 171.226639,128.019516 170.967529,128.736755 
z"/>
<path fill="#2A2926" opacity="1.000000" stroke="none" 
	d="
M169.578796,133.441559 
	C169.457962,132.856888 169.572876,132.075546 169.947189,131.128860 
	C170.075897,131.723969 169.945206,132.484451 169.578796,133.441559 
z"/>
<path fill="#2A2926" opacity="1.000000" stroke="none" 
	d="
M168.016052,139.745056 
	C167.855515,139.324524 167.897415,138.711578 168.162872,138.027466 
	C168.330444,138.488419 168.274460,139.020523 168.016052,139.745056 
z"/>
<path fill="#2A2926" opacity="1.000000" stroke="none" 
	d="
M166.972275,143.738373 
	C166.798447,143.318161 166.836868,142.713837 167.088348,142.030762 
	C167.262466,142.486099 167.223495,143.020187 166.972275,143.738373 
z"/>
<path fill="#2A2926" opacity="1.000000" stroke="none" 
	d="
M182.973419,83.735329 
	C182.808899,83.315933 182.852280,82.708786 183.112091,82.025856 
	C183.279465,82.482574 183.230408,83.015076 182.973419,83.735329 
z"/>
<path fill="#F9F9F9" opacity="1.000000" stroke="none" 
	d="
M119.345123,148.635910 
	C118.951363,138.056778 119.196442,127.575089 118.889587,117.109589 
	C118.574799,106.373604 117.720284,95.653458 117.232254,84.120453 
	C117.305023,81.165543 117.247536,79.016548 117.190048,76.867561 
	C117.492996,72.887558 117.795937,68.907562 118.255150,64.241211 
	C118.356461,62.993256 118.301498,62.431648 118.246536,61.870045 
	C119.347816,55.852367 120.391640,49.823257 121.585846,43.824078 
	C121.938118,42.054424 122.284431,39.990593 123.393059,38.729107 
	C125.343712,36.509491 127.879356,34.803963 130.170029,32.883156 
	C131.811325,34.993324 133.833817,36.916565 134.986176,39.266499 
	C136.127365,41.593678 136.390991,44.351200 137.209381,47.430893 
	C137.723633,50.942299 138.068039,53.942776 138.300125,57.366402 
	C138.478439,60.519634 138.769089,63.249714 138.962677,66.440987 
	C138.924103,73.938492 138.982605,80.974808 138.837769,88.362801 
	C138.536957,93.159439 138.439453,97.604393 138.233185,102.485245 
	C138.198151,106.361732 138.271881,109.802330 138.345612,113.242935 
	C139.519485,115.213791 140.693375,117.184647 141.867264,119.155502 
	C143.588074,117.600212 146.263351,116.346123 146.865540,114.437828 
	C149.565598,105.881775 151.446411,97.069885 154.055481,88.481743 
	C157.487808,77.183769 161.132126,65.940224 165.085770,54.815605 
	C166.629486,50.471989 168.923813,46.284290 171.531738,42.474239 
	C172.937927,40.419827 176.414337,37.596710 177.753845,38.131767 
	C180.653030,39.289818 184.285873,42.054260 184.883667,44.764843 
	C185.911209,49.424129 185.572998,54.705967 184.517578,59.438702 
	C182.056107,70.476593 178.830475,81.344200 175.909470,92.279472 
	C170.889984,111.070831 165.866745,129.861191 160.728622,149.087753 
	C153.950516,147.884918 147.193054,147.033524 140.619843,145.427826 
	C133.065369,143.582428 126.152390,144.163391 119.345123,148.635910 
z"/>
<path fill="#FAFAFA" opacity="1.000000" stroke="none" 
	d="
M85.518555,205.051331 
	C83.206253,202.668808 81.296059,200.290115 79.136505,197.793533 
	C77.902245,195.032028 76.917343,192.388412 75.843384,189.118378 
	C75.511284,187.992691 75.268250,187.493423 75.025215,186.994156 
	C74.916153,185.929947 74.807098,184.865753 74.648254,183.135651 
	C74.393967,181.648239 74.189461,180.826706 73.984955,180.005188 
	C74.021606,174.318100 74.058258,168.631027 74.054779,162.478027 
	C79.481079,161.896698 85.177467,162.659927 89.977699,157.828491 
	C90.883942,157.837997 91.259941,157.992050 91.635948,158.146103 
	C95.777756,168.379990 104.579414,170.868896 113.865494,164.353668 
	C114.633171,164.625992 114.818840,164.812241 115.004509,164.998489 
	C116.045631,172.296631 120.784966,177.613235 128.353806,179.259018 
	C135.509796,180.815018 142.776901,181.853470 149.965317,183.270828 
	C152.004303,183.672867 153.938873,184.604385 156.079468,185.639984 
	C155.851089,187.736526 155.147629,189.483154 155.131180,191.236252 
	C155.045486,200.376892 149.745056,204.706238 141.242035,206.703339 
	C139.927505,207.099152 138.861282,207.242599 137.178421,207.449615 
	C136.046097,207.693237 135.530396,207.873291 135.014694,208.053329 
	C133.943466,208.102478 132.872223,208.151611 131.058319,208.238312 
	C128.540894,208.506363 126.766129,208.736847 124.991371,208.967331 
	C121.295303,208.907898 117.599228,208.848465 113.097504,208.719818 
	C109.839706,208.622391 107.387566,208.594177 104.935432,208.565979 
	C102.912590,208.323654 100.889755,208.081329 98.165161,207.735107 
	C96.618896,207.657028 95.774368,207.682861 94.929848,207.708679 
	C93.556404,207.506195 92.182961,207.303696 90.216599,206.874496 
	C89.067894,206.542328 88.512093,206.436874 87.956299,206.331421 
	C87.277756,205.905991 86.599205,205.480576 85.518555,205.051331 
z"/>
<path fill="#F8F8F8" opacity="1.000000" stroke="none" 
	d="
M142.038971,150.328064 
	C148.235504,151.529404 154.436707,152.707245 160.627441,153.937805 
	C169.169083,155.635651 174.200958,161.931458 172.911301,169.248154 
	C171.569534,176.860306 164.652710,181.009201 155.768509,179.460037 
	C147.900665,178.088104 140.047455,176.632431 132.184219,175.233826 
	C123.292160,173.652222 117.964378,167.420105 119.193634,160.005997 
	C120.475685,152.273438 127.566833,148.068039 136.721420,149.611069 
	C137.541870,149.749374 138.362396,149.887192 139.800644,150.177490 
	C140.958588,150.329193 141.498779,150.328629 142.038971,150.328064 
z"/>
<path fill="#0A070F" opacity="1.000000" stroke="none" 
	d="
M138.412445,56.943253 
	C138.068039,53.942776 137.723633,50.942299 137.450867,47.730583 
	C137.906403,47.210735 138.290298,46.902126 139.347412,46.288353 
	C140.497025,47.972332 140.973419,49.961479 141.776093,52.020943 
	C142.320480,53.199528 142.538589,54.307796 142.647141,55.658161 
	C142.060898,56.514141 141.166611,57.129467 141.168716,57.741699 
	C141.218964,72.299332 141.365509,86.856636 141.779648,101.719879 
	C142.049469,103.722313 142.034149,105.418869 141.781525,107.758995 
	C141.365982,109.602226 141.187744,110.801888 141.009491,112.001556 
	C140.349686,112.325432 139.689896,112.649307 138.687851,113.108055 
	C138.271881,109.802330 138.198151,106.361732 138.593384,102.351807 
	C139.055252,97.192032 139.048172,92.601578 139.041107,88.011124 
	C138.982605,80.974808 138.924103,73.938492 139.241272,66.166885 
	C139.215439,62.602142 138.813934,59.772697 138.412445,56.943253 
z"/>
<path fill="#2A2926" opacity="1.000000" stroke="none" 
	d="
M141.304169,112.121460 
	C141.187744,110.801888 141.365982,109.602226 141.835297,108.179810 
	C142.707047,108.118568 143.287750,108.280090 144.006302,108.232040 
	C145.221634,110.590698 145.462555,112.654236 141.304169,112.121460 
z"/>
<path fill="#262427" opacity="1.000000" stroke="none" 
	d="
M115.223282,164.822418 
	C114.818840,164.812241 114.633171,164.625992 114.198944,164.133453 
	C113.879951,163.622925 113.872032,163.416306 113.961571,163.052704 
	C114.478348,163.480865 114.960205,164.063614 115.223282,164.822418 
z"/>
<path fill="#2A2926" opacity="1.000000" stroke="none" 
	d="
M144.378876,106.960541 
	C144.189331,106.409073 144.279144,105.810966 144.662872,105.100418 
	C144.857285,105.629959 144.757767,106.271919 144.378876,106.960541 
z"/>
<path fill="#2A2926" opacity="1.000000" stroke="none" 
	d="
M141.965576,150.095657 
	C141.498779,150.328629 140.958588,150.329193 140.219910,150.129730 
	C140.645004,149.907547 141.268600,149.885391 141.965576,150.095657 
z"/>
<path fill="#F7F7F7" opacity="1.000000" stroke="none" 
	d="
M94.316986,116.881195 
	C96.625168,113.497536 98.933342,110.113876 101.810242,106.599648 
	C102.914810,106.281754 103.450661,106.094437 103.986504,105.907120 
	C110.353516,106.644753 113.683426,111.056435 113.950378,116.618256 
	C114.529655,128.687286 114.187347,140.805161 114.019722,152.900269 
	C113.996033,154.609497 113.060379,156.430130 112.168831,157.982056 
	C108.089806,165.082413 100.528465,165.059952 96.464050,157.931671 
	C95.577019,156.375961 95.192093,154.533981 94.542847,152.168945 
	C94.340652,150.675888 94.171524,149.837723 94.093559,148.556976 
	C94.124329,145.409836 94.063934,142.705261 94.194839,139.800858 
	C94.258537,138.733749 94.130936,137.866501 94.094582,136.568909 
	C94.124733,134.092560 94.063644,132.046524 94.198593,129.705383 
	C94.273132,127.276260 94.151634,125.142235 94.030136,123.008217 
	C94.094360,122.253204 94.158585,121.498199 94.312675,120.102005 
	C94.374023,118.600945 94.345505,117.741066 94.316986,116.881195 
z"/>
<path fill="#F9F9F9" opacity="1.000000" stroke="none" 
	d="
M73.149361,155.658768 
	C69.969139,152.586090 68.749657,148.891922 68.944382,144.443588 
	C69.198174,138.645752 68.987160,132.828339 69.013557,127.019516 
	C69.043610,120.407158 71.916290,116.260422 77.240128,115.061760 
	C82.239754,113.936096 86.320343,116.433495 89.380356,123.162132 
	C89.214760,133.287354 88.904396,142.653671 88.594032,152.019974 
	C85.350159,155.974426 81.563194,158.541489 75.517105,156.624329 
	C74.320183,156.119034 73.734772,155.888901 73.149361,155.658768 
z"/>
<path fill="#0B090E" opacity="1.000000" stroke="none" 
	d="
M88.949524,151.974655 
	C88.904396,142.653671 89.214760,133.287354 89.610092,123.459816 
	C90.565903,122.997017 91.436729,122.995453 92.657181,123.411667 
	C93.338715,125.886467 93.670631,127.943481 94.002548,130.000504 
	C94.063644,132.046524 94.124733,134.092560 93.833298,136.737335 
	C93.655014,138.224304 93.829277,139.112503 94.003540,140.000702 
	C94.063934,142.705261 94.124329,145.409836 93.853119,148.635956 
	C93.333313,149.434998 93.145096,149.712479 92.956894,149.989960 
	C91.739601,150.636414 90.522308,151.282867 88.949524,151.974655 
z"/>
<path fill="#1A171D" opacity="1.000000" stroke="none" 
	d="
M72.973770,155.954742 
	C73.734772,155.888901 74.320183,156.119034 75.088654,156.608917 
	C74.842705,158.293015 74.413681,159.717361 73.953461,161.540222 
	C73.185890,161.954269 72.449501,161.969772 71.343895,161.979279 
	C70.978546,161.238007 70.982414,160.502747 70.989143,159.400360 
	C71.594063,158.105728 72.196121,157.178223 72.973770,155.954742 
z"/>
<path fill="#444346" opacity="1.000000" stroke="none" 
	d="
M116.913086,77.064697 
	C117.247536,79.016548 117.305023,81.165543 117.168777,83.655167 
	C116.862068,81.751144 116.749092,79.506485 116.913086,77.064697 
z"/>
<path fill="#3E3C40" opacity="1.000000" stroke="none" 
	d="
M94.198593,129.705383 
	C93.670631,127.943481 93.338715,125.886467 92.983841,123.411118 
	C93.139313,122.979462 93.317749,122.966148 93.763153,122.980530 
	C94.151634,125.142235 94.273132,127.276260 94.198593,129.705383 
z"/>
<path fill="#1A171D" opacity="1.000000" stroke="none" 
	d="
M91.995728,117.996803 
	C91.050583,117.600517 90.105446,117.204224 89.160301,116.807930 
	C89.448776,116.293701 89.737251,115.779472 90.025726,115.265244 
	C90.675743,115.936790 91.325760,116.608337 91.987885,117.639938 
	C92.000000,118.000000 91.995728,117.996803 91.995728,117.996803 
z"/>
<path fill="#3E3C40" opacity="1.000000" stroke="none" 
	d="
M94.091263,116.917496 
	C94.345505,117.741066 94.374023,118.600945 94.217560,119.732323 
	C93.853615,120.018158 93.674637,120.032486 93.249214,119.690109 
	C93.002899,118.888596 93.003021,118.443794 93.003143,117.998993 
	C93.290604,117.650597 93.578064,117.302200 94.091263,116.917496 
z"/>
<path fill="#262427" opacity="1.000000" stroke="none" 
	d="
M91.925201,157.990463 
	C91.259941,157.992050 90.883942,157.837997 90.228165,157.553375 
	C90.156685,157.017700 90.364983,156.612564 91.107613,156.106995 
	C92.072166,156.023895 92.502380,156.041245 92.932602,156.058594 
	C92.693214,156.650681 92.453835,157.242752 91.925201,157.990463 
z"/>
<path fill="#3E3C40" opacity="1.000000" stroke="none" 
	d="
M93.004028,150.253937 
	C93.145096,149.712479 93.333313,149.434998 93.761963,149.078552 
	C94.171524,149.837723 94.340652,150.675888 94.373520,151.817169 
	C93.841888,151.586166 93.446526,151.052032 93.004028,150.253937 
z"/>
<path fill="#444346" opacity="1.000000" stroke="none" 
	d="
M118.016556,61.953403 
	C118.301498,62.431648 118.356461,62.993256 118.215469,63.779144 
	C117.941864,63.347878 117.864220,62.692318 118.016556,61.953403 
z"/>
<path fill="#535154" opacity="1.000000" stroke="none" 
	d="
M103.853958,105.710617 
	C103.450661,106.094437 102.914810,106.281754 102.100395,106.386536 
	C102.455017,106.040703 103.088219,105.777412 103.853958,105.710617 
z"/>
<path fill="#1A171D" opacity="1.000000" stroke="none" 
	d="
M92.912186,155.761978 
	C92.502380,156.041245 92.072166,156.023895 91.318405,155.998291 
	C91.321075,155.490875 91.647285,154.991699 91.973488,154.492523 
	C92.279579,154.816803 92.585670,155.141083 92.912186,155.761978 
z"/>
<path fill="#0B090E" opacity="1.000000" stroke="none" 
	d="
M92.751549,117.998055 
	C93.003021,118.443794 93.002899,118.888596 92.980942,119.666252 
	C92.655685,119.526367 92.352257,119.053635 92.022278,118.288849 
	C91.995728,117.996803 92.000000,118.000000 91.998383,117.997963 
	C92.164505,117.996323 92.332230,117.996719 92.751549,117.998055 
z"/>
<path fill="#2A2926" opacity="1.000000" stroke="none" 
	d="
M105.090652,208.885956 
	C107.387566,208.594177 109.839706,208.622391 112.646492,208.821625 
	C110.416054,209.063766 107.830971,209.134857 105.090652,208.885956 
z"/>
<path fill="#2A2926" opacity="1.000000" stroke="none" 
	d="
M125.229980,209.234863 
	C126.766129,208.736847 128.540894,208.506363 130.689789,208.405914 
	C129.198807,208.858093 127.333702,209.180237 125.229980,209.234863 
z"/>
<path fill="#2A2926" opacity="1.000000" stroke="none" 
	d="
M95.040756,207.971008 
	C95.774368,207.682861 96.618896,207.657028 97.732117,207.813919 
	C97.051102,208.075546 96.101387,208.154449 95.040756,207.971008 
z"/>
<path fill="#2A2926" opacity="1.000000" stroke="none" 
	d="
M87.984169,206.596695 
	C88.512093,206.436874 89.067894,206.542328 89.797043,206.882111 
	C89.317612,207.031601 88.664825,206.946793 87.984169,206.596695 
z"/>
<path fill="#2A2926" opacity="1.000000" stroke="none" 
	d="
M135.132172,208.265045 
	C135.530396,207.873291 136.046097,207.693237 136.818176,207.636871 
	C136.466263,207.999313 135.857956,208.238052 135.132172,208.265045 
z"/>
<path fill="#2A2926" opacity="1.000000" stroke="none" 
	d="
M73.744614,180.165161 
	C74.189461,180.826706 74.393967,181.648239 74.475128,182.771240 
	C74.069283,182.156876 73.786781,181.241013 73.744614,180.165161 
z"/>
<path fill="#2A2926" opacity="1.000000" stroke="none" 
	d="
M74.798309,187.125610 
	C75.268250,187.493423 75.511284,187.992691 75.668961,188.771942 
	C75.246201,188.453644 74.908806,187.855347 74.798309,187.125610 
z"/>
<path fill="#2A2926" opacity="1.000000" stroke="none" 
	d="
M138.837769,88.362801 
	C139.048172,92.601578 139.055252,97.192032 138.702148,101.915924 
	C138.439453,97.604393 138.536957,93.159439 138.837769,88.362801 
z"/>
<path fill="#2A2926" opacity="1.000000" stroke="none" 
	d="
M138.300125,57.366402 
	C138.813934,59.772697 139.215439,62.602142 139.338348,65.705688 
	C138.769089,63.249714 138.478439,60.519634 138.300125,57.366402 
z"/>
<path fill="#3E3C40" opacity="1.000000" stroke="none" 
	d="
M94.194839,139.800858 
	C93.829277,139.112503 93.655014,138.224304 93.742050,137.167664 
	C94.130936,137.866501 94.258537,138.733749 94.194839,139.800858 
z"/>
</svg>